<?xml version="1.0" encoding="utf-8" standalone="no"?>
<!DOCTYPE svg PUBLIC "-//W3C//DTD SVG 1.1//EN"
  "http://www.w3.org/Graphics/SVG/1.1/DTD/svg11.dtd">
<!-- Created with matplotlib (https://matplotlib.org/) -->
<svg height="288pt" version="1.1" viewBox="0 0 432 288" width="432pt" xmlns="http://www.w3.org/2000/svg" xmlns:xlink="http://www.w3.org/1999/xlink">
 <metadata>
  <rdf:RDF xmlns:cc="http://creativecommons.org/ns#" xmlns:dc="http://purl.org/dc/elements/1.1/" xmlns:rdf="http://www.w3.org/1999/02/22-rdf-syntax-ns#">
   <cc:Work>
    <dc:type rdf:resource="http://purl.org/dc/dcmitype/StillImage"/>
    <dc:date>2020-12-29T12:20:00.897818</dc:date>
    <dc:format>image/svg+xml</dc:format>
    <dc:creator>
     <cc:Agent>
      <dc:title>Matplotlib v3.3.0, https://matplotlib.org/</dc:title>
     </cc:Agent>
    </dc:creator>
   </cc:Work>
  </rdf:RDF>
 </metadata>
 <defs>
  <style type="text/css">*{stroke-linecap:butt;stroke-linejoin:round;}</style>
 </defs>
 <g id="figure_1">
  <g id="patch_1">
   <path d="M 0 288 
L 432 288 
L 432 0 
L 0 0 
z
" style="fill:#21242e;"/>
  </g>
  <g id="axes_1">
   <g id="patch_2">
    <path d="M 40.06 250.33 
L 421.2 250.33 
L 421.2 37.17 
L 40.06 37.17 
z
" style="fill:#21242e;"/>
   </g>
   <g id="matplotlib.axis_1">
    <g id="xtick_1">
     <g id="line2d_1">
      <defs>
       <path d="M 0 0 
L 0 3.5 
" id="m5fe134ae4e" style="stroke:#dddddd;stroke-width:0.8;"/>
      </defs>
      <g>
       <use style="fill:#dddddd;stroke:#dddddd;stroke-width:0.8;" x="57.384545" xlink:href="#m5fe134ae4e" y="250.33"/>
      </g>
     </g>
     <g id="text_1">
      <!-- 0 -->
      <g style="fill:#dddddd;" transform="translate(54.744702 264.350312)scale(0.1 -0.1)">
       <defs>
        <path d="M 27 50.40625 
Q 37.09375 50.40625 42.640625 43.84375 
Q 48.203125 37.296875 48.203125 25.203125 
Q 48.203125 12.796875 42.390625 6.046875 
Q 36.59375 -0.703125 26 -0.703125 
Q 15.796875 -0.703125 10.25 5.796875 
Q 4.703125 12.296875 4.703125 24.203125 
Q 4.703125 36.796875 10.5 43.59375 
Q 16.296875 50.40625 27 50.40625 
z
M 26.296875 43.09375 
Q 18.703125 43.09375 14.84375 38.5 
Q 11 33.90625 11 24.796875 
Q 11 15.59375 14.890625 10.9375 
Q 18.796875 6.296875 26.40625 6.296875 
Q 34 6.296875 37.953125 10.84375 
Q 41.90625 15.40625 41.90625 24.296875 
Q 41.90625 33.59375 37.953125 38.34375 
Q 34 43.09375 26.296875 43.09375 
z
" id="AlegreyaSans-Regular-48"/>
       </defs>
       <use xlink:href="#AlegreyaSans-Regular-48"/>
      </g>
     </g>
    </g>
    <g id="xtick_2">
     <g id="line2d_2">
      <g>
       <use style="fill:#dddddd;stroke:#dddddd;stroke-width:0.8;" x="132.708656" xlink:href="#m5fe134ae4e" y="250.33"/>
      </g>
     </g>
     <g id="text_2">
      <!-- 10 -->
      <g style="fill:#dddddd;" transform="translate(128.3485 264.350312)scale(0.1 -0.1)">
       <defs>
        <path d="M 22.5 49.40625 
L 22 20.703125 
L 22.40625 0 
L 14.40625 0 
L 14.90625 19.703125 
L 14.796875 41.09375 
L 1.90625 37.5 
L 1.09375 37.90625 
L 1.09375 44.203125 
L 21.296875 50.203125 
z
" id="AlegreyaSans-Regular-49"/>
       </defs>
       <use xlink:href="#AlegreyaSans-Regular-49"/>
       <use x="34.399994" xlink:href="#AlegreyaSans-Regular-48"/>
      </g>
     </g>
    </g>
    <g id="xtick_3">
     <g id="line2d_3">
      <g>
       <use style="fill:#dddddd;stroke:#dddddd;stroke-width:0.8;" x="208.032767" xlink:href="#m5fe134ae4e" y="250.33"/>
      </g>
     </g>
     <g id="text_3">
      <!-- 20 -->
      <g style="fill:#dddddd;" transform="translate(203.117923 264.350312)scale(0.1 -0.1)">
       <defs>
        <path d="M 23 50.203125 
Q 29 50.203125 32.84375 47.140625 
Q 36.703125 44.09375 36.703125 39.09375 
Q 36.703125 35.09375 33.890625 30.140625 
Q 31.09375 25.203125 25 18.09375 
L 14.90625 6.59375 
L 15.09375 6.203125 
L 33.59375 6.203125 
L 42 6.796875 
L 42.59375 6.296875 
L 41.5 -0.40625 
L 31.296875 0 
L 8.90625 0 
L 5.203125 -0.203125 
L 4.703125 0.203125 
L 4.703125 5.203125 
L 18.59375 20.296875 
Q 24 26.296875 26.5 30.25 
Q 29 34.203125 29 37.203125 
Q 29 39.90625 27 41.65625 
Q 25 43.40625 21.40625 43.40625 
Q 17.796875 43.40625 14.25 41.59375 
Q 10.703125 39.796875 7.796875 36.59375 
L 6.796875 36.59375 
L 5.5 42.703125 
Q 9.40625 46.296875 13.90625 48.25 
Q 18.40625 50.203125 23 50.203125 
z
" id="AlegreyaSans-Regular-50"/>
       </defs>
       <use xlink:href="#AlegreyaSans-Regular-50"/>
       <use x="45.499985" xlink:href="#AlegreyaSans-Regular-48"/>
      </g>
     </g>
    </g>
    <g id="xtick_4">
     <g id="line2d_4">
      <g>
       <use style="fill:#dddddd;stroke:#dddddd;stroke-width:0.8;" x="283.356877" xlink:href="#m5fe134ae4e" y="250.33"/>
      </g>
     </g>
     <g id="text_4">
      <!-- 30 -->
      <g style="fill:#dddddd;" transform="translate(278.656877 264.350312)scale(0.1 -0.1)">
       <defs>
        <path d="M 19.09375 50.296875 
Q 25.90625 50.296875 30.09375 46.75 
Q 34.296875 43.203125 34.296875 37.59375 
Q 34.296875 33.296875 31.75 29.296875 
Q 29.203125 25.296875 24.296875 22.796875 
L 24.296875 22.40625 
Q 30.296875 21 33.390625 17.59375 
Q 36.5 14.203125 36.5 9.09375 
Q 36.5 3.59375 33.640625 -0.703125 
Q 30.796875 -5 25.59375 -7.34375 
Q 20.40625 -9.703125 13.703125 -9.703125 
Q 9.09375 -9.703125 3.90625 -8.796875 
L 3.40625 -2 
L 4 -1.5 
Q 8.703125 -3.5 14.203125 -3.5 
Q 20.796875 -3.5 24.890625 -0.34375 
Q 29 2.796875 29 8.09375 
Q 29 12.796875 25.640625 15.5 
Q 22.296875 18.203125 16.09375 18.40625 
L 10.203125 18.40625 
L 9.703125 19 
L 9.90625 24.5 
L 14.296875 24.59375 
Q 17 24.59375 19.796875 26.09375 
Q 22.59375 27.59375 24.4375 30.1875 
Q 26.296875 32.796875 26.296875 35.90625 
Q 26.296875 39.5 23.890625 41.59375 
Q 21.5 43.703125 17.59375 43.703125 
Q 14.5 43.703125 11.546875 42.25 
Q 8.59375 40.796875 5.203125 37.796875 
L 4.296875 37.796875 
L 3.09375 44.09375 
Q 10.59375 50.296875 19.09375 50.296875 
z
" id="AlegreyaSans-Regular-51"/>
       </defs>
       <use xlink:href="#AlegreyaSans-Regular-51"/>
       <use x="41.199997" xlink:href="#AlegreyaSans-Regular-48"/>
      </g>
     </g>
    </g>
    <g id="xtick_5">
     <g id="line2d_5">
      <g>
       <use style="fill:#dddddd;stroke:#dddddd;stroke-width:0.8;" x="358.680988" xlink:href="#m5fe134ae4e" y="250.33"/>
      </g>
     </g>
     <g id="text_5">
      <!-- 40 -->
      <g style="fill:#dddddd;" transform="translate(353.636457 264.350312)scale(0.1 -0.1)">
       <defs>
        <path d="M 35.203125 7.703125 
L 35 7.703125 
L 35.296875 -8.59375 
L 34.796875 -9.203125 
L 28.796875 -9.703125 
L 28.296875 -9.09375 
L 28.5 7.703125 
L 9.796875 7.703125 
L 3.203125 7.5 
L 2.703125 8.296875 
L 2.703125 13.40625 
L 27.796875 49.796875 
L 35.09375 49.796875 
L 34.90625 13.90625 
L 44.296875 13.90625 
L 44.90625 13.09375 
L 44.40625 7.5 
z
M 28.59375 13.90625 
L 28.59375 40.203125 
L 27.90625 40.203125 
L 9.703125 13.90625 
z
" id="AlegreyaSans-Regular-52"/>
       </defs>
       <use xlink:href="#AlegreyaSans-Regular-52"/>
       <use x="48.099991" xlink:href="#AlegreyaSans-Regular-48"/>
      </g>
     </g>
    </g>
    <g id="text_6">
     <!-- epochs -->
     <g style="fill:#dddddd;" transform="translate(211.318906 276.803906)scale(0.13 -0.13)">
      <defs>
       <path d="M 40.5 8 
L 41.203125 7.296875 
L 40.40625 0 
L 8.296875 0 
L 8.703125 15 
L 8.296875 50.09375 
L 40.703125 50.09375 
L 41.296875 49.296875 
L 40.59375 42 
L 27.90625 42.5 
L 17.90625 42.40625 
L 17.703125 29.40625 
L 27.296875 29.296875 
L 36 29.59375 
L 36.5 28.796875 
L 35.90625 21.40625 
L 26.5 21.703125 
L 17.59375 21.59375 
L 17.5 15.90625 
L 17.703125 7.703125 
L 27 7.59375 
z
" id="AlegreyaSansSC-Medium-101"/>
       <path d="M 27.296875 50.203125 
Q 35.40625 50.203125 39.84375 46.25 
Q 44.296875 42.296875 44.296875 35 
Q 44.296875 26.40625 38.59375 21.453125 
Q 32.90625 16.5 23.203125 16.5 
L 17.5 16.5 
L 17.5 15.90625 
L 17.90625 0 
L 8.296875 0 
L 8.703125 15 
L 8.296875 50.09375 
L 27.296875 50.203125 
z
M 25.59375 23.703125 
Q 34.203125 25.5 34.203125 34.203125 
Q 34.203125 38.5 31.796875 40.59375 
Q 29.40625 42.703125 24.40625 42.90625 
L 17.90625 42.703125 
L 17.59375 23.90625 
L 25.59375 23.703125 
z
" id="AlegreyaSansSC-Medium-112"/>
       <path d="M 28.796875 50.796875 
Q 39.796875 50.796875 45.84375 44.34375 
Q 51.90625 37.90625 51.90625 26.203125 
Q 51.90625 13.203125 45.453125 6.203125 
Q 39 -0.796875 27.09375 -0.796875 
Q 16 -0.796875 10 5.796875 
Q 4 12.40625 4 24.5 
Q 4 37.09375 10.453125 43.9375 
Q 16.90625 50.796875 28.796875 50.796875 
z
M 27.90625 42.90625 
Q 20.703125 42.90625 17.34375 38.84375 
Q 14 34.796875 14 25.703125 
Q 14 15.59375 17.296875 11.296875 
Q 20.59375 7 27.796875 7 
Q 35.09375 7 38.5 11.046875 
Q 41.90625 15.09375 41.90625 24.296875 
Q 41.90625 34.296875 38.59375 38.59375 
Q 35.296875 42.90625 27.90625 42.90625 
z
" id="AlegreyaSansSC-Medium-111"/>
       <path d="M 28.796875 50.703125 
Q 37 50.703125 43.09375 47.5 
L 41.296875 39 
L 40.40625 38.703125 
Q 37.90625 40.59375 34.65625 41.6875 
Q 31.40625 42.796875 27.90625 42.796875 
Q 14.09375 42.796875 14.09375 25.59375 
Q 14.09375 16.59375 17.6875 11.9375 
Q 21.296875 7.296875 28.203125 7.296875 
Q 31.59375 7.296875 35.09375 8.390625 
Q 38.59375 9.5 41.296875 11.40625 
L 42.296875 10.90625 
L 41.5 2.40625 
Q 34.796875 -0.703125 27.703125 -0.703125 
Q 16.203125 -0.703125 10.09375 5.890625 
Q 4 12.5 4 24.703125 
Q 4 37.203125 10.453125 43.953125 
Q 16.90625 50.703125 28.796875 50.703125 
z
" id="AlegreyaSansSC-Medium-99"/>
       <path d="M 51.296875 15.90625 
L 51.703125 0 
L 42.09375 0 
L 42.40625 15 
L 42.296875 21 
L 29.40625 21.09375 
L 17.59375 20.90625 
L 17.5 15.90625 
L 17.90625 0 
L 8.296875 0 
L 8.703125 15 
L 8.296875 50.09375 
L 18 50.09375 
L 17.703125 29.296875 
L 30.09375 29.09375 
L 42.296875 29.203125 
L 42.09375 50.09375 
L 51.796875 50.09375 
z
" id="AlegreyaSansSC-Medium-104"/>
       <path d="M 24.40625 50.703125 
Q 30.796875 50.703125 37.203125 48.203125 
L 35.703125 39.09375 
L 34.203125 38.796875 
Q 28.40625 43.40625 23.203125 43.40625 
Q 19.5 43.40625 17.34375 41.5 
Q 15.203125 39.59375 15.203125 37.09375 
Q 15.203125 34.59375 17.453125 32.9375 
Q 19.703125 31.296875 24.5 29.296875 
Q 29 27.40625 31.75 25.75 
Q 34.5 24.09375 36.5 21.390625 
Q 38.5 18.703125 38.5 14.703125 
Q 38.5 10.59375 36.34375 7.09375 
Q 34.203125 3.59375 29.953125 1.4375 
Q 25.703125 -0.703125 19.703125 -0.703125 
Q 16.09375 -0.703125 12.09375 0.09375 
Q 8.09375 0.90625 4.40625 2.5 
L 5.703125 12.203125 
L 6.796875 12.796875 
Q 9.703125 9.90625 13.640625 8.25 
Q 17.59375 6.59375 20.90625 6.59375 
Q 24.5 6.59375 26.75 8.4375 
Q 29 10.296875 29 13 
Q 29 15.703125 26.703125 17.34375 
Q 24.40625 19 19.59375 21 
Q 15.296875 22.90625 12.5 24.546875 
Q 9.703125 26.203125 7.75 28.953125 
Q 5.796875 31.703125 5.796875 35.703125 
Q 5.796875 39.90625 8.046875 43.296875 
Q 10.296875 46.703125 14.546875 48.703125 
Q 18.796875 50.703125 24.40625 50.703125 
z
" id="AlegreyaSansSC-Medium-115"/>
      </defs>
      <use xlink:href="#AlegreyaSansSC-Medium-101"/>
      <use x="44.399994" xlink:href="#AlegreyaSansSC-Medium-112"/>
      <use x="92.199982" xlink:href="#AlegreyaSansSC-Medium-111"/>
      <use x="147.999969" xlink:href="#AlegreyaSansSC-Medium-99"/>
      <use x="193.799957" xlink:href="#AlegreyaSansSC-Medium-104"/>
      <use x="253.799942" xlink:href="#AlegreyaSansSC-Medium-115"/>
     </g>
    </g>
   </g>
   <g id="matplotlib.axis_2">
    <g id="ytick_1">
     <g id="line2d_6">
      <defs>
       <path d="M 0 0 
L -3.5 0 
" id="mf46c822122" style="stroke:#dddddd;stroke-width:0.8;"/>
      </defs>
      <g>
       <use style="fill:#dddddd;stroke:#dddddd;stroke-width:0.8;" x="40.06" xlink:href="#mf46c822122" y="240.640909"/>
      </g>
     </g>
     <g id="text_7">
      <!-- 0% -->
      <g style="fill:#dddddd;" transform="translate(19.539687 244.151065)scale(0.1 -0.1)">
       <defs>
        <path d="M 64.40625 65.796875 
L 65 64.40625 
L 17.796875 -9.09375 
L 14.296875 -7.09375 
L 13.796875 -5.90625 
L 60.90625 67.796875 
z
M 19.203125 64.59375 
Q 26 64.59375 29.640625 60.140625 
Q 33.296875 55.703125 33.296875 47.40625 
Q 33.296875 38.5 29.390625 33.84375 
Q 25.5 29.203125 18.203125 29.203125 
Q 11.40625 29.203125 7.703125 33.640625 
Q 4 38.09375 4 46.5 
Q 4 55.296875 7.890625 59.9375 
Q 11.796875 64.59375 19.203125 64.59375 
z
M 18.59375 58.703125 
Q 9.59375 58.703125 9.59375 47 
Q 9.59375 34.703125 18.703125 34.703125 
Q 27.796875 34.703125 27.796875 46.5 
Q 27.796875 58.703125 18.59375 58.703125 
z
M 64.203125 34.90625 
Q 71 34.90625 74.640625 30.5 
Q 78.296875 26.09375 78.296875 17.796875 
Q 78.296875 8.90625 74.4375 4.25 
Q 70.59375 -0.40625 63.203125 -0.40625 
Q 56.40625 -0.40625 52.703125 4.046875 
Q 49 8.5 49 16.796875 
Q 49 25.59375 52.890625 30.25 
Q 56.796875 34.90625 64.203125 34.90625 
z
M 63.59375 29.09375 
Q 54.59375 29.09375 54.59375 17.296875 
Q 54.59375 5.09375 63.703125 5.09375 
Q 72.796875 5.09375 72.796875 16.90625 
Q 72.796875 29.09375 63.59375 29.09375 
z
" id="AlegreyaSans-Regular-37"/>
       </defs>
       <use xlink:href="#AlegreyaSans-Regular-48"/>
       <use x="52.799988" xlink:href="#AlegreyaSans-Regular-37"/>
      </g>
     </g>
    </g>
    <g id="ytick_2">
     <g id="line2d_7">
      <g>
       <use style="fill:#dddddd;stroke:#dddddd;stroke-width:0.8;" x="40.06" xlink:href="#mf46c822122" y="201.884545"/>
      </g>
     </g>
     <g id="text_8">
      <!-- 20% -->
      <g style="fill:#dddddd;" transform="translate(14.989688 205.394702)scale(0.1 -0.1)">
       <use xlink:href="#AlegreyaSans-Regular-50"/>
       <use x="45.499985" xlink:href="#AlegreyaSans-Regular-48"/>
       <use x="98.299973" xlink:href="#AlegreyaSans-Regular-37"/>
      </g>
     </g>
    </g>
    <g id="ytick_3">
     <g id="line2d_8">
      <g>
       <use style="fill:#dddddd;stroke:#dddddd;stroke-width:0.8;" x="40.06" xlink:href="#mf46c822122" y="163.128182"/>
      </g>
     </g>
     <g id="text_9">
      <!-- 40% -->
      <g style="fill:#dddddd;" transform="translate(14.730313 166.638338)scale(0.1 -0.1)">
       <use xlink:href="#AlegreyaSans-Regular-52"/>
       <use x="48.099991" xlink:href="#AlegreyaSans-Regular-48"/>
       <use x="100.899979" xlink:href="#AlegreyaSans-Regular-37"/>
      </g>
     </g>
    </g>
    <g id="ytick_4">
     <g id="line2d_9">
      <g>
       <use style="fill:#dddddd;stroke:#dddddd;stroke-width:0.8;" x="40.06" xlink:href="#mf46c822122" y="124.371818"/>
      </g>
     </g>
     <g id="text_10">
      <!-- 60% -->
      <g style="fill:#dddddd;" transform="translate(14.839688 127.881974)scale(0.1 -0.1)">
       <defs>
        <path d="M 26.703125 34.90625 
Q 34.203125 34.90625 38.453125 30.296875 
Q 42.703125 25.703125 42.703125 18 
Q 42.703125 9.703125 37.5 4.453125 
Q 32.296875 -0.796875 23.203125 -0.796875 
Q 14 -0.796875 9.296875 4.890625 
Q 4.59375 10.59375 4.59375 21.09375 
Q 4.59375 33.796875 12.34375 43.796875 
Q 20.09375 53.796875 34.203125 59.40625 
L 34.703125 59.40625 
L 40.90625 55.796875 
L 40.90625 55 
Q 28.90625 50.796875 22.15625 45 
Q 15.40625 39.203125 13.09375 31.203125 
L 13.703125 30.5 
Q 19.703125 34.90625 26.703125 34.90625 
z
M 23.796875 4.703125 
Q 29.40625 4.703125 32.5 7.84375 
Q 35.59375 11 35.59375 16.90625 
Q 35.59375 22.703125 32.6875 25.84375 
Q 29.796875 29 24.5 29 
Q 17.90625 29 11.90625 23.796875 
Q 11.796875 22.90625 11.796875 21.09375 
Q 11.796875 12.90625 14.6875 8.796875 
Q 17.59375 4.703125 23.796875 4.703125 
z
" id="AlegreyaSans-Regular-54"/>
       </defs>
       <use xlink:href="#AlegreyaSans-Regular-54"/>
       <use x="46.999985" xlink:href="#AlegreyaSans-Regular-48"/>
       <use x="99.799973" xlink:href="#AlegreyaSans-Regular-37"/>
      </g>
     </g>
    </g>
    <g id="ytick_5">
     <g id="line2d_10">
      <g>
       <use style="fill:#dddddd;stroke:#dddddd;stroke-width:0.8;" x="40.06" xlink:href="#mf46c822122" y="85.615455"/>
      </g>
     </g>
     <g id="text_11">
      <!-- 80% -->
      <g style="fill:#dddddd;" transform="translate(14.799063 89.125611)scale(0.1 -0.1)">
       <defs>
        <path d="M 24.5 59.203125 
Q 31.796875 59.203125 35.9375 55.453125 
Q 40.09375 51.703125 40.09375 45.203125 
Q 40.09375 40.09375 37.5 36.796875 
Q 34.90625 33.5 30.40625 30.90625 
L 30.40625 30.40625 
Q 35.796875 27.796875 38.84375 24.640625 
Q 41.90625 21.5 41.90625 15.796875 
Q 41.90625 8.296875 36.59375 3.796875 
Q 31.296875 -0.703125 22.5 -0.703125 
Q 14.296875 -0.703125 9.546875 3.4375 
Q 4.796875 7.59375 4.796875 14.296875 
Q 4.796875 19.90625 8 23.453125 
Q 11.203125 27 16.5 29.59375 
L 16.5 30.09375 
Q 12.296875 32.296875 9.6875 35.5 
Q 7.09375 38.703125 7.09375 43.90625 
Q 7.09375 51 11.890625 55.09375 
Q 16.703125 59.203125 24.5 59.203125 
z
M 24.09375 53.40625 
Q 19.40625 53.40625 16.59375 50.90625 
Q 13.796875 48.40625 13.796875 44.09375 
Q 13.796875 39.796875 16.4375 37.4375 
Q 19.09375 35.09375 24.09375 33.09375 
Q 28.59375 35 31.140625 37.546875 
Q 33.703125 40.09375 33.703125 44.5 
Q 33.703125 48.703125 31.140625 51.046875 
Q 28.59375 53.40625 24.09375 53.40625 
z
M 22.703125 27.09375 
Q 17.59375 25.296875 14.59375 22.59375 
Q 11.59375 19.90625 11.59375 15.09375 
Q 11.59375 10.59375 14.75 7.796875 
Q 17.90625 5 23.203125 5 
Q 28.703125 5 31.953125 7.84375 
Q 35.203125 10.703125 35.203125 15.296875 
Q 35.203125 18.5 33.5 20.640625 
Q 31.796875 22.796875 29.4375 24.046875 
Q 27.09375 25.296875 22.703125 27.09375 
z
" id="AlegreyaSans-Regular-56"/>
       </defs>
       <use xlink:href="#AlegreyaSans-Regular-56"/>
       <use x="47.399994" xlink:href="#AlegreyaSans-Regular-48"/>
       <use x="100.199982" xlink:href="#AlegreyaSans-Regular-37"/>
      </g>
     </g>
    </g>
    <g id="ytick_6">
     <g id="line2d_11">
      <g>
       <use style="fill:#dddddd;stroke:#dddddd;stroke-width:0.8;" x="40.06" xlink:href="#mf46c822122" y="46.859091"/>
      </g>
     </g>
     <g id="text_12">
      <!-- 100% -->
      <g style="fill:#dddddd;" transform="translate(10.819375 50.369247)scale(0.1 -0.1)">
       <use xlink:href="#AlegreyaSans-Regular-49"/>
       <use x="34.399994" xlink:href="#AlegreyaSans-Regular-48"/>
       <use x="87.199982" xlink:href="#AlegreyaSans-Regular-48"/>
       <use x="139.999969" xlink:href="#AlegreyaSans-Regular-37"/>
      </g>
     </g>
    </g>
   </g>
   <g id="line2d_12">
    <path clip-path="url(#pa89ea2d0d8)" d="M 57.384545 240.640909 
L 64.916957 240.640909 
L 72.449368 240.640909 
L 79.981779 240.640909 
L 87.51419 240.640909 
L 95.046601 240.640909 
L 102.579012 240.640909 
L 110.111423 240.640909 
L 117.643834 240.640909 
L 125.176245 240.640909 
L 132.708656 240.640909 
L 140.241067 240.640909 
L 147.773478 240.640909 
L 155.305889 240.640909 
L 162.8383 240.640909 
L 170.370711 240.640909 
L 177.903123 240.640909 
L 185.435534 240.640909 
L 192.967945 240.640909 
L 200.500356 240.640909 
L 208.032767 240.640909 
L 215.565178 240.640909 
L 223.097589 240.640909 
L 230.63 240.640909 
L 238.162411 240.640909 
L 245.694822 240.640909 
L 253.227233 240.640909 
L 260.759644 240.640909 
L 268.292055 212.957791 
L 275.824466 129.908437 
L 283.356877 129.908437 
L 290.889289 240.640909 
L 298.4217 129.908437 
L 305.954111 102.225321 
L 313.486522 46.859091 
L 321.018933 46.859091 
L 328.551344 102.225321 
L 336.083755 46.859091 
L 343.616166 46.859091 
L 351.148577 46.859091 
L 358.680988 46.859091 
L 366.213399 46.859091 
L 373.74581 74.542206 
L 381.278221 74.542206 
L 388.810632 46.859091 
L 396.343043 46.859091 
L 403.875455 46.859091 
" style="fill:none;stroke:#808000;stroke-linecap:square;stroke-width:1.5;"/>
   </g>
   <g id="line2d_13">
    <path clip-path="url(#pa89ea2d0d8)" d="M 57.384545 240.640909 
L 64.916957 240.640909 
L 72.449368 240.640909 
L 79.981779 240.640909 
L 87.51419 240.640909 
L 95.046601 240.640909 
L 102.579012 240.640909 
L 110.111423 240.640909 
L 117.643834 240.640909 
L 125.176245 240.640909 
L 132.708656 240.640909 
L 140.241067 240.640909 
L 147.773478 240.640909 
L 155.305889 240.640909 
L 162.8383 240.640909 
L 170.370711 240.640909 
L 177.903123 240.640909 
L 185.435534 240.640909 
L 192.967945 240.640909 
L 200.500356 240.640909 
L 208.032767 240.640909 
L 215.565178 157.591558 
L 223.097589 157.591558 
L 230.63 240.640909 
L 238.162411 212.957791 
L 245.694822 102.225321 
L 253.227233 74.542206 
L 260.759644 185.274673 
L 268.292055 129.908437 
L 275.824466 46.859091 
L 283.356877 46.859091 
L 290.889289 157.591558 
L 298.4217 74.542206 
L 305.954111 102.225321 
L 313.486522 102.225321 
L 321.018933 74.542206 
L 328.551344 46.859091 
L 336.083755 74.542206 
L 343.616166 74.542206 
L 351.148577 74.542206 
L 358.680988 74.542206 
L 366.213399 46.859091 
L 373.74581 74.542206 
L 381.278221 74.542206 
L 388.810632 74.542206 
L 396.343043 74.542206 
L 403.875455 46.859091 
" style="fill:none;stroke:#adff2f;stroke-linecap:square;stroke-width:1.5;"/>
   </g>
   <g id="line2d_14">
    <path clip-path="url(#pa89ea2d0d8)" d="M 57.384545 240.640909 
L 64.916957 240.640909 
L 72.449368 240.640909 
L 79.981779 240.640909 
L 87.51419 240.640909 
L 95.046601 240.640909 
L 102.579012 240.640909 
L 110.111423 240.640909 
L 117.643834 240.640909 
L 125.176245 240.640909 
L 132.708656 240.640909 
L 140.241067 240.640909 
L 147.773478 240.640909 
L 155.305889 240.640909 
L 162.8383 240.640909 
L 170.370711 240.640909 
L 177.903123 240.640909 
L 185.435534 240.640909 
L 192.967945 240.640909 
L 200.500356 240.640909 
L 208.032767 240.640909 
L 215.565178 240.640909 
L 223.097589 240.640909 
L 230.63 240.640909 
L 238.162411 240.640909 
L 245.694822 240.640909 
L 253.227233 240.640909 
L 260.759644 240.640909 
L 268.292055 240.640909 
L 275.824466 102.225321 
L 283.356877 185.274673 
L 290.889289 185.274673 
L 298.4217 74.542206 
L 305.954111 74.542206 
L 313.486522 46.859091 
L 321.018933 46.859091 
L 328.551344 74.542206 
L 336.083755 46.859091 
L 343.616166 46.859091 
L 351.148577 46.859091 
L 358.680988 46.859091 
L 366.213399 46.859091 
L 373.74581 46.859091 
L 381.278221 46.859091 
L 388.810632 46.859091 
L 396.343043 46.859091 
L 403.875455 46.859091 
" style="fill:none;stroke:#008080;stroke-linecap:square;stroke-width:1.5;"/>
   </g>
   <g id="line2d_15">
    <path clip-path="url(#pa89ea2d0d8)" d="M 57.384545 240.640909 
L 64.916957 240.640909 
L 72.449368 240.640909 
L 79.981779 240.640909 
L 87.51419 240.640909 
L 95.046601 240.640909 
L 102.579012 240.640909 
L 110.111423 240.640909 
L 117.643834 240.640909 
L 125.176245 240.640909 
L 132.708656 240.640909 
L 140.241067 240.640909 
L 147.773478 240.640909 
L 155.305889 240.640909 
L 162.8383 240.640909 
L 170.370711 240.640909 
L 177.903123 240.640909 
L 185.435534 240.640909 
L 192.967945 240.640909 
L 200.500356 240.640909 
L 208.032767 240.640909 
L 215.565178 240.640909 
L 223.097589 240.640909 
L 230.63 240.640909 
L 238.162411 240.640909 
L 245.694822 240.640909 
L 253.227233 212.957791 
L 260.759644 46.859091 
L 268.292055 74.542206 
L 275.824466 102.225321 
L 283.356877 46.859091 
L 290.889289 46.859091 
L 298.4217 46.859091 
L 305.954111 46.859091 
L 313.486522 46.859091 
L 321.018933 46.859091 
L 328.551344 46.859091 
L 336.083755 46.859091 
L 343.616166 46.859091 
L 351.148577 46.859091 
L 358.680988 46.859091 
L 366.213399 46.859091 
L 373.74581 46.859091 
L 381.278221 46.859091 
L 388.810632 46.859091 
L 396.343043 46.859091 
L 403.875455 46.859091 
" style="fill:none;stroke:#dc143c;stroke-dasharray:5.55,2.4;stroke-dashoffset:0;stroke-width:1.5;"/>
   </g>
   <g id="line2d_16">
    <path clip-path="url(#pa89ea2d0d8)" d="M 57.384545 240.640909 
L 64.916957 240.640909 
L 72.449368 240.640909 
L 79.981779 240.640909 
L 87.51419 240.640909 
L 95.046601 240.640909 
L 102.579012 240.640909 
L 110.111423 240.640909 
L 117.643834 240.640909 
L 125.176245 240.640909 
L 132.708656 240.640909 
L 140.241067 240.640909 
L 147.773478 240.640909 
L 155.305889 240.640909 
L 162.8383 212.957791 
L 170.370711 240.640909 
L 177.903123 240.640909 
L 185.435534 240.640909 
L 192.967945 240.640909 
L 200.500356 240.640909 
L 208.032767 102.225321 
L 215.565178 240.640909 
L 223.097589 240.640909 
L 230.63 240.640909 
L 238.162411 129.908437 
L 245.694822 240.640909 
L 253.227233 102.225321 
L 260.759644 240.640909 
L 268.292055 129.908437 
L 275.824466 46.859091 
L 283.356877 46.859091 
L 290.889289 102.225321 
L 298.4217 46.859091 
L 305.954111 46.859091 
L 313.486522 46.859091 
L 321.018933 46.859091 
L 328.551344 46.859091 
L 336.083755 46.859091 
L 343.616166 46.859091 
L 351.148577 46.859091 
L 358.680988 46.859091 
L 366.213399 46.859091 
L 373.74581 46.859091 
L 381.278221 46.859091 
L 388.810632 46.859091 
L 396.343043 46.859091 
L 403.875455 46.859091 
" style="fill:none;stroke:#ff6347;stroke-dasharray:5.55,2.4;stroke-dashoffset:0;stroke-width:1.5;"/>
   </g>
   <g id="line2d_17">
    <path clip-path="url(#pa89ea2d0d8)" d="M 40.06 56.548182 
L 421.2 56.548182 
" style="fill:none;stroke:#808080;stroke-dasharray:1.5,2.475;stroke-dashoffset:0;stroke-width:1.5;"/>
   </g>
   <g id="patch_3">
    <path d="M 40.06 250.33 
L 40.06 37.17 
" style="fill:none;stroke:#dddddd;stroke-linecap:square;stroke-linejoin:miter;stroke-width:0.8;"/>
   </g>
   <g id="patch_4">
    <path d="M 40.06 250.33 
L 421.2 250.33 
" style="fill:none;stroke:#dddddd;stroke-linecap:square;stroke-linejoin:miter;stroke-width:0.8;"/>
   </g>
   <g id="text_13">
    <!-- Reflexive Accuracy for an SRN (−) -->
    <g style="fill:#dddddd;" transform="translate(40.06 22.17)scale(0.16 -0.16)">
     <defs>
      <path d="M 41.59375 25.59375 
Q 49.40625 13.203125 57.09375 3.203125 
L 56.90625 1.703125 
Q 50.40625 -0.59375 43.59375 -1 
L 42.203125 0.09375 
Q 35 12.5 30.5 21.703125 
L 20.796875 21.703125 
L 20.796875 20.40625 
L 21.40625 0 
L 7.796875 0 
L 8.5 19.203125 
L 7.796875 64.40625 
L 32.5 64.5 
Q 42.59375 64.5 48.09375 59.546875 
Q 53.59375 54.59375 53.59375 45.40625 
Q 53.59375 39.203125 50.4375 34.046875 
Q 47.296875 28.90625 41.59375 25.59375 
z
M 21 32.203125 
L 30.90625 31.796875 
Q 39.40625 34.703125 39.40625 44.09375 
Q 39.40625 49.203125 36.65625 51.75 
Q 33.90625 54.296875 28.203125 54.5 
L 21.40625 54.09375 
z
" id="AlegreyaSans-Bold-82"/>
      <path d="M 42.09375 21.59375 
L 15.09375 21.40625 
Q 16 8.90625 27.796875 8.90625 
Q 34 8.90625 41.59375 12.40625 
L 42.703125 11.703125 
L 40.703125 1.796875 
Q 33.09375 -1 26.40625 -1 
Q 15.40625 -1 9.15625 5.390625 
Q 2.90625 11.796875 2.90625 23.09375 
Q 2.90625 34.296875 9 40.84375 
Q 15.09375 47.40625 25.5 47.40625 
Q 34.40625 47.40625 39.25 42.546875 
Q 44.09375 37.703125 44.09375 29 
Q 44.09375 26.703125 43.59375 23.203125 
z
M 32.5 30.5 
Q 32.5 34.5 30.703125 36.546875 
Q 28.90625 38.59375 25.40625 38.59375 
Q 21.5 38.59375 18.890625 36.046875 
Q 16.296875 33.5 15.40625 28.703125 
L 32.296875 29.09375 
z
" id="AlegreyaSans-Bold-101"/>
      <path d="M 30.296875 70.40625 
Q 34.40625 70.40625 39 69.5 
L 38.09375 59.59375 
L 37.203125 59 
Q 32.5 61 29 61 
Q 22.796875 61 22.703125 53.90625 
L 22.59375 46.09375 
L 33.90625 46.09375 
L 34.296875 45.40625 
L 33.703125 38.09375 
L 22.40625 38.09375 
L 22.09375 20.5 
L 22.796875 0 
L 9.5 0 
L 10.296875 19.296875 
L 10.09375 38.09375 
L 3.09375 38.09375 
L 2.59375 38.796875 
L 3.296875 46.09375 
L 10 46.09375 
L 9.90625 51.59375 
Q 9.90625 60.59375 15.25 65.5 
Q 20.59375 70.40625 30.296875 70.40625 
z
" id="AlegreyaSans-Bold-102"/>
      <path d="M 19.09375 20.5 
L 19.796875 0 
L 6.5 0 
L 7.203125 19.296875 
L 6.59375 69.203125 
L 19.90625 70.203125 
z
" id="AlegreyaSans-Bold-108"/>
      <path d="M 17.59375 41.296875 
L 24 30.90625 
L 30.296875 41.703125 
L 32.796875 46.40625 
L 44.5 46.40625 
L 31.09375 23.59375 
L 45.09375 0.40625 
L 31.09375 -0.59375 
L 28.796875 5.296875 
L 22.203125 16 
L 15.296875 4.703125 
L 13.09375 0 
L 1.40625 0 
L 14.90625 23.296875 
L 1.296875 46.09375 
L 15.5 46.796875 
z
" id="AlegreyaSans-Bold-120"/>
      <path d="M 7 19.203125 
L 6.5 45.59375 
L 19.59375 46.703125 
L 19 20.5 
L 19.59375 0 
L 6.296875 0 
z
M 13.296875 69.296875 
Q 16.40625 69.296875 18.15625 67.5 
Q 19.90625 65.703125 19.90625 62.5 
Q 19.90625 59.09375 18 57.09375 
Q 16.09375 55.09375 12.796875 55.09375 
Q 9.5 55.09375 7.75 56.890625 
Q 6 58.703125 6 62 
Q 6 65.296875 7.953125 67.296875 
Q 9.90625 69.296875 13.296875 69.296875 
z
" id="AlegreyaSans-Bold-105"/>
      <path d="M 14.796875 39.09375 
L 21.796875 12.5 
L 22.5 12.5 
L 30.90625 38.40625 
L 32.59375 46.5 
L 44.203125 46.5 
L 28.59375 0 
L 14.296875 0 
L 1.09375 46.203125 
L 13.5 46.796875 
z
" id="AlegreyaSans-Bold-118"/>
      <path id="AlegreyaSans-Bold-32"/>
      <path d="M 58.40625 0 
L 44.59375 0 
L 43 8.40625 
L 41.296875 14.40625 
L 28.703125 14.703125 
L 17.59375 14.40625 
L 15.90625 9.09375 
L 14.203125 0 
L 0.796875 0 
L 22.59375 64.40625 
L 38.703125 64.40625 
z
M 38.40625 24.90625 
L 30.796875 51.703125 
L 29.90625 51.703125 
L 21.09375 24.90625 
L 29.703125 24.703125 
z
" id="AlegreyaSans-Bold-65"/>
      <path d="M 25.203125 47.40625 
Q 28.5 47.40625 31.75 46.75 
Q 35 46.09375 37.5 44.90625 
L 35.296875 34.296875 
L 34.203125 33.796875 
Q 29.09375 36.59375 25.09375 36.59375 
Q 20.5 36.59375 18 33.296875 
Q 15.5 30 15.5 23.90625 
Q 15.5 16.90625 18.203125 13.203125 
Q 20.90625 9.5 25.90625 9.5 
Q 30.40625 9.5 35.90625 12 
L 36.90625 11.203125 
L 35.59375 0.90625 
Q 29.59375 -1 23.296875 -1 
Q 13.703125 -1 8.296875 5.25 
Q 2.90625 11.5 2.90625 22.703125 
Q 2.90625 34.296875 8.796875 40.84375 
Q 14.703125 47.40625 25.203125 47.40625 
z
" id="AlegreyaSans-Bold-99"/>
      <path d="M 50.5 8.703125 
L 49.296875 1.703125 
Q 45.59375 -0.703125 41.703125 -0.796875 
Q 38.796875 -0.296875 36.890625 1.5 
Q 35 3.296875 34 6.703125 
L 33.09375 6.703125 
Q 27.40625 1.09375 21.296875 -0.59375 
Q 13.703125 -0.59375 9.75 2.84375 
Q 5.796875 6.296875 5.90625 12.796875 
L 6.09375 24.59375 
L 5.59375 45.59375 
L 18.5 46.703125 
L 18.203125 17.203125 
Q 18.09375 13.703125 19.59375 11.890625 
Q 21.09375 10.09375 24.09375 10.09375 
Q 28.5 10.09375 32.796875 14 
L 32.796875 45.59375 
L 45.5 46.703125 
L 44.59375 12.09375 
Q 44.59375 10.5 45.140625 9.796875 
Q 45.703125 9.09375 46.90625 9.09375 
Q 48 9.09375 49.59375 9.5 
z
" id="AlegreyaSans-Bold-117"/>
      <path d="M 31.796875 46.59375 
Q 32.703125 46.59375 34.296875 46.40625 
L 34.296875 34.09375 
L 32.90625 33.59375 
Q 31.203125 34.296875 29.203125 34.296875 
Q 23.40625 34.296875 18.703125 26.796875 
L 18.703125 20.5 
L 19.40625 0 
L 6.09375 0 
L 6.90625 19.203125 
L 6.296875 45.59375 
L 18.90625 46.703125 
L 18.796875 37.59375 
L 19.59375 37.59375 
Q 24.5 46.59375 31.796875 46.59375 
z
" id="AlegreyaSans-Bold-114"/>
      <path d="M 24.40625 47.40625 
Q 32.09375 47.40625 36.4375 43.953125 
Q 40.796875 40.5 40.796875 34.296875 
Q 40.796875 32.5 40.203125 22.90625 
Q 40.09375 20.09375 39.890625 17.140625 
Q 39.703125 14.203125 39.703125 12.09375 
Q 39.703125 10.40625 40.203125 9.75 
Q 40.703125 9.09375 42 9.09375 
Q 43 9.09375 44.59375 9.5 
L 45.59375 8.703125 
L 44.40625 1.703125 
Q 41.203125 -0.40625 37.09375 -0.796875 
Q 34.09375 -0.5 32.09375 1.34375 
Q 30.09375 3.203125 29.40625 6.5 
L 28.703125 6.5 
Q 23.703125 1.203125 18.40625 -0.90625 
Q 11.203125 -0.796875 7.09375 2.890625 
Q 3 6.59375 3 13 
Q 3 18 5.546875 20.84375 
Q 8.09375 23.703125 13.296875 24.703125 
L 28.59375 27.59375 
L 28.59375 31.703125 
Q 28.59375 38.203125 22.203125 38.203125 
Q 19.09375 38.203125 15.640625 36.796875 
Q 12.203125 35.40625 7.90625 32.40625 
L 6.90625 33 
L 5.40625 41.796875 
Q 9.703125 44.5 14.59375 45.953125 
Q 19.5 47.40625 24.40625 47.40625 
z
M 17.90625 18.59375 
Q 16.296875 18.203125 15.546875 17.25 
Q 14.796875 16.296875 14.796875 14.40625 
Q 14.796875 11.796875 16.1875 10.34375 
Q 17.59375 8.90625 20.09375 8.90625 
Q 24 8.90625 28.296875 13.5 
L 28.5 20.90625 
z
" id="AlegreyaSans-Bold-97"/>
      <path d="M 14.09375 39.40625 
L 22.40625 13.40625 
L 23.203125 13.40625 
L 31.5 38.296875 
L 33.203125 46.5 
L 44.59375 46.5 
L 29.40625 3.09375 
Q 27 -3.703125 24 -7.84375 
Q 21 -12 16.5 -14.640625 
Q 12 -17.296875 4.90625 -19.203125 
L 3.90625 -19.09375 
Q 0.5 -15.796875 -1.703125 -11.296875 
L -1.296875 -10 
Q 5 -8.90625 9.09375 -6.75 
Q 13.203125 -4.59375 16.90625 0 
L -0.09375 46.203125 
L 12.5 46.796875 
z
" id="AlegreyaSans-Bold-121"/>
      <path d="M 25.40625 47.40625 
Q 35.59375 47.40625 41 41.40625 
Q 46.40625 35.40625 46.40625 24.09375 
Q 46.40625 11.90625 40.59375 5.453125 
Q 34.796875 -1 23.90625 -1 
Q 13.703125 -1 8.296875 5 
Q 2.90625 11 2.90625 22.296875 
Q 2.90625 34.5 8.703125 40.953125 
Q 14.5 47.40625 25.40625 47.40625 
z
M 24.5 38.40625 
Q 19.703125 38.40625 17.546875 35.203125 
Q 15.40625 32 15.40625 24.90625 
Q 15.40625 15.703125 17.59375 11.796875 
Q 19.796875 7.90625 24.796875 7.90625 
Q 29.59375 7.90625 31.75 11.046875 
Q 33.90625 14.203125 33.90625 21.40625 
Q 33.90625 30.5 31.65625 34.453125 
Q 29.40625 38.40625 24.5 38.40625 
z
" id="AlegreyaSans-Bold-111"/>
      <path d="M 34.703125 29 
Q 34.796875 32.5 33.140625 34.453125 
Q 31.5 36.40625 28.40625 36.40625 
Q 23.90625 36.40625 18.796875 32.09375 
L 18.796875 20.5 
L 19.40625 0 
L 6.09375 0 
L 6.796875 19.203125 
L 6.296875 45.59375 
L 18.90625 46.703125 
L 18.90625 39.90625 
L 19.59375 39.90625 
Q 25.09375 44.90625 31.59375 47.09375 
Q 39.203125 47.09375 43.203125 43.640625 
Q 47.203125 40.203125 47 33.703125 
L 46.703125 20.40625 
L 47.296875 0 
L 33.90625 0 
z
" id="AlegreyaSans-Bold-110"/>
      <path d="M 28.5 65.203125 
Q 36.703125 65.203125 44.796875 61.90625 
L 42.59375 50.203125 
L 40.59375 49.40625 
Q 37.203125 51.796875 33.546875 53.1875 
Q 29.90625 54.59375 26.90625 54.59375 
Q 22.90625 54.59375 20.5 52.4375 
Q 18.09375 50.296875 18.09375 47.5 
Q 18.09375 44.59375 20.75 42.59375 
Q 23.40625 40.59375 29.09375 37.90625 
Q 34.59375 35.40625 38.046875 33.25 
Q 41.5 31.09375 43.953125 27.59375 
Q 46.40625 24.09375 46.40625 19 
Q 46.40625 13.5 43.40625 8.953125 
Q 40.40625 4.40625 34.90625 1.75 
Q 29.40625 -0.90625 22.203125 -0.90625 
Q 12.703125 -0.90625 3.09375 3.203125 
L 5 15.796875 
L 6.5 16.59375 
Q 10.5 13.09375 15.25 11.25 
Q 20 9.40625 23.703125 9.40625 
Q 28.09375 9.40625 30.546875 11.546875 
Q 33 13.703125 33 16.703125 
Q 33 19.90625 30.34375 21.90625 
Q 27.703125 23.90625 21.796875 26.703125 
Q 16.40625 29.09375 13 31.1875 
Q 9.59375 33.296875 7.1875 36.796875 
Q 4.796875 40.296875 4.796875 45.296875 
Q 4.796875 50.90625 7.796875 55.453125 
Q 10.796875 60 16.1875 62.59375 
Q 21.59375 65.203125 28.5 65.203125 
z
" id="AlegreyaSans-Bold-83"/>
      <path d="M 61 19.90625 
L 61.5 0 
L 46.90625 0 
L 20.59375 43.59375 
L 19.796875 43.59375 
L 19.703125 22.203125 
L 20.09375 0 
L 7.796875 0 
L 8.5 19 
L 7.90625 64.40625 
L 22.40625 64.40625 
L 48.703125 20.796875 
L 49.59375 20.796875 
L 49.296875 63.796875 
L 61.796875 64.59375 
z
" id="AlegreyaSans-Bold-78"/>
      <path d="M 29.09375 62 
L 29.09375 60.90625 
Q 23.09375 55.5 20.390625 47.09375 
Q 17.703125 38.703125 17.703125 25.40625 
Q 17.703125 12.796875 20.390625 4.75 
Q 23.09375 -3.296875 29.09375 -8.796875 
L 29.09375 -9.90625 
L 24.296875 -13.90625 
L 23.203125 -13.90625 
Q 14.703125 -7.703125 10.890625 1.546875 
Q 7.09375 10.796875 7 25.296875 
Q 7.09375 40.59375 10.890625 50.1875 
Q 14.703125 59.796875 23.203125 66.09375 
L 24.296875 66.09375 
z
" id="AlegreyaSans-Bold-40"/>
      <path d="M 45.703125 29.59375 
L 45 21.5 
L 3.203125 21.5 
L 2.296875 22.40625 
L 3 30.5 
L 44.796875 30.5 
z
" id="AlegreyaSans-Bold-8722"/>
      <path d="M -0.09375 -9.90625 
L -0.09375 -8.796875 
Q 5.90625 -3.40625 8.59375 5 
Q 11.296875 13.40625 11.296875 26.703125 
Q 11.296875 39.296875 8.59375 47.34375 
Q 5.90625 55.40625 -0.09375 60.90625 
L -0.09375 62 
L 4.703125 66 
L 5.796875 66 
Q 14.296875 59.796875 18.09375 50.546875 
Q 21.90625 41.296875 22 26.796875 
Q 21.90625 11.5 18.09375 1.890625 
Q 14.296875 -7.703125 5.796875 -14 
L 4.703125 -14 
z
" id="AlegreyaSans-Bold-41"/>
     </defs>
     <use xlink:href="#AlegreyaSans-Bold-82"/>
     <use x="58.999985" xlink:href="#AlegreyaSans-Bold-101"/>
     <use x="106.199982" xlink:href="#AlegreyaSans-Bold-102"/>
     <use x="139.099976" xlink:href="#AlegreyaSans-Bold-108"/>
     <use x="165.399963" xlink:href="#AlegreyaSans-Bold-101"/>
     <use x="212.59996" xlink:href="#AlegreyaSans-Bold-120"/>
     <use x="258.699951" xlink:href="#AlegreyaSans-Bold-105"/>
     <use x="284.799942" xlink:href="#AlegreyaSans-Bold-118"/>
     <use x="329.299927" xlink:href="#AlegreyaSans-Bold-101"/>
     <use x="376.499924" xlink:href="#AlegreyaSans-Bold-32"/>
     <use x="391.599915" xlink:href="#AlegreyaSans-Bold-65"/>
     <use x="451.599899" xlink:href="#AlegreyaSans-Bold-99"/>
     <use x="490.099884" xlink:href="#AlegreyaSans-Bold-99"/>
     <use x="528.599869" xlink:href="#AlegreyaSans-Bold-117"/>
     <use x="580.799866" xlink:href="#AlegreyaSans-Bold-114"/>
     <use x="615.599854" xlink:href="#AlegreyaSans-Bold-97"/>
     <use x="663.699844" xlink:href="#AlegreyaSans-Bold-99"/>
     <use x="702.199829" xlink:href="#AlegreyaSans-Bold-121"/>
     <use x="746.899826" xlink:href="#AlegreyaSans-Bold-32"/>
     <use x="761.999817" xlink:href="#AlegreyaSans-Bold-102"/>
     <use x="794.899811" xlink:href="#AlegreyaSans-Bold-111"/>
     <use x="844.299805" xlink:href="#AlegreyaSans-Bold-114"/>
     <use x="879.099792" xlink:href="#AlegreyaSans-Bold-32"/>
     <use x="894.199783" xlink:href="#AlegreyaSans-Bold-97"/>
     <use x="942.299774" xlink:href="#AlegreyaSans-Bold-110"/>
     <use x="995.199768" xlink:href="#AlegreyaSans-Bold-32"/>
     <use x="1010.299759" xlink:href="#AlegreyaSans-Bold-83"/>
     <use x="1060.099747" xlink:href="#AlegreyaSans-Bold-82"/>
     <use x="1119.099731" xlink:href="#AlegreyaSans-Bold-78"/>
     <use x="1188.599716" xlink:href="#AlegreyaSans-Bold-32"/>
     <use x="1203.699707" xlink:href="#AlegreyaSans-Bold-40"/>
     <use x="1233.199692" xlink:href="#AlegreyaSans-Bold-8722"/>
     <use x="1281.199677" xlink:href="#AlegreyaSans-Bold-41"/>
    </g>
   </g>
   <g id="legend_1">
    <g id="line2d_18">
     <path d="M 361.65 180.49875 
L 381.65 180.49875 
" style="fill:none;stroke:#808000;stroke-linecap:square;stroke-width:1.5;"/>
    </g>
    <g id="line2d_19"/>
    <g id="text_14">
     <!-- Alice -->
     <g style="fill:#dddddd;" transform="translate(389.65 183.99875)scale(0.1 -0.1)">
      <defs>
       <path d="M 55.59375 0 
L 47.40625 0 
L 45.90625 6.40625 
L 42.296875 17.40625 
L 27.90625 17.703125 
L 14.90625 17.40625 
L 11 6.796875 
L 9.40625 0 
L 1.40625 0 
L 24.90625 64.09375 
L 34.203125 64.09375 
z
M 40.09375 24.203125 
L 29.703125 55.796875 
L 29 55.796875 
L 17.40625 24.203125 
L 28.59375 24 
z
" id="AlegreyaSans-Regular-65"/>
       <path d="M 15.796875 20.09375 
L 16.296875 0 
L 8.40625 0 
L 9 19.5 
L 8.5 69.5 
L 16.40625 70.203125 
z
" id="AlegreyaSans-Regular-108"/>
       <path d="M 8.5 19.40625 
L 8.203125 45.296875 
L 15.90625 46 
L 15.703125 20.09375 
L 15.90625 0 
L 8.09375 0 
z
M 12.203125 66.296875 
Q 14.203125 66.296875 15.40625 65.09375 
Q 16.609375 63.90625 16.609375 61.796875 
Q 16.609375 59.59375 15.359375 58.296875 
Q 14.109375 57 11.90625 57 
Q 9.796875 57 8.640625 58.203125 
Q 7.5 59.40625 7.5 61.59375 
Q 7.5 63.703125 8.75 65 
Q 10 66.296875 12.203125 66.296875 
z
" id="AlegreyaSans-Regular-105"/>
       <path d="M 24.5 46.59375 
Q 27.59375 46.59375 30.9375 45.84375 
Q 34.296875 45.09375 36.796875 43.90625 
L 35.40625 37 
L 34.5 36.703125 
Q 29.296875 40.09375 24.203125 40.09375 
Q 18.296875 40.09375 15 35.59375 
Q 11.703125 31.09375 11.703125 23 
Q 11.703125 14.90625 15.140625 10.25 
Q 18.59375 5.59375 24.703125 5.59375 
Q 27.40625 5.59375 30.34375 6.5 
Q 33.296875 7.40625 35.90625 9 
L 36.796875 8.5 
L 35.90625 1.796875 
Q 29.796875 -0.796875 23.703125 -0.796875 
Q 14.59375 -0.796875 9.390625 5.453125 
Q 4.203125 11.703125 4.203125 22.59375 
Q 4.203125 33.703125 9.640625 40.140625 
Q 15.09375 46.59375 24.5 46.59375 
z
" id="AlegreyaSans-Regular-99"/>
       <path d="M 11.59375 23.203125 
L 11.59375 23 
Q 11.59375 14.59375 15.390625 10.09375 
Q 19.203125 5.59375 26.203125 5.59375 
Q 29.703125 5.59375 33.203125 6.75 
Q 36.703125 7.90625 39.59375 10 
L 40.40625 9.40625 
L 39.203125 2.59375 
Q 32.203125 -0.796875 25.203125 -0.796875 
Q 15.40625 -0.796875 9.796875 5.453125 
Q 4.203125 11.703125 4.203125 22.59375 
Q 4.203125 33.59375 9.796875 40.09375 
Q 15.40625 46.59375 24.90625 46.59375 
Q 32.90625 46.59375 37.296875 42.046875 
Q 41.703125 37.5 41.703125 29.40625 
Q 41.703125 26.703125 41.296875 24.296875 
L 40.296875 23.296875 
z
M 24.90625 41 
Q 19.90625 41 16.546875 37.75 
Q 13.203125 34.5 12.09375 28.59375 
L 34.203125 29 
L 34.40625 30.40625 
Q 34.40625 35.5 31.953125 38.25 
Q 29.5 41 24.90625 41 
z
" id="AlegreyaSans-Regular-101"/>
      </defs>
      <use xlink:href="#AlegreyaSans-Regular-65"/>
      <use x="57.799988" xlink:href="#AlegreyaSans-Regular-108"/>
      <use x="82.499985" xlink:href="#AlegreyaSans-Regular-105"/>
      <use x="106.699982" xlink:href="#AlegreyaSans-Regular-99"/>
      <use x="145.199966" xlink:href="#AlegreyaSans-Regular-101"/>
     </g>
    </g>
    <g id="line2d_20">
     <path d="M 361.65 194.369062 
L 381.65 194.369062 
" style="fill:none;stroke:#adff2f;stroke-linecap:square;stroke-width:1.5;"/>
    </g>
    <g id="line2d_21"/>
    <g id="text_15">
     <!-- Claire -->
     <g style="fill:#dddddd;" transform="translate(389.65 197.869062)scale(0.1 -0.1)">
      <defs>
       <path d="M 32.203125 64.59375 
Q 42.296875 64.59375 49.703125 59.796875 
L 48.09375 52.5 
L 47.203125 52.296875 
Q 40.5 57.90625 31.796875 57.90625 
Q 22.296875 57.90625 17.1875 51.34375 
Q 12.09375 44.796875 12.09375 32.203125 
Q 12.09375 19.5 17.1875 12.796875 
Q 22.296875 6.09375 31.59375 6.09375 
Q 36 6.09375 40.34375 7.6875 
Q 44.703125 9.296875 48.296875 12.203125 
L 49.296875 11.703125 
L 48.59375 4.09375 
Q 39.90625 -0.703125 30.90625 -0.703125 
Q 18 -0.703125 10.890625 7.640625 
Q 3.796875 16 3.796875 31.5 
Q 3.796875 47.40625 11.1875 56 
Q 18.59375 64.59375 32.203125 64.59375 
z
" id="AlegreyaSans-Regular-67"/>
       <path d="M 23.09375 46.59375 
Q 29.59375 46.59375 33.34375 43.390625 
Q 37.09375 40.203125 37.09375 34.59375 
Q 37.09375 32.90625 36.5 22.296875 
Q 35.90625 11.703125 35.90625 9.90625 
Q 35.90625 7.703125 36.59375 6.84375 
Q 37.296875 6 39 6 
Q 40.5 6 42.40625 6.59375 
L 43.203125 5.90625 
L 42.40625 1.40625 
Q 39.5 -0.296875 36.703125 -0.59375 
Q 33.59375 -0.296875 31.75 1.59375 
Q 29.90625 3.5 29.796875 6.796875 
L 29.09375 6.796875 
Q 23.703125 1.296875 18.40625 -0.703125 
Q 11.703125 -0.703125 7.953125 2.640625 
Q 4.203125 6 4.203125 11.796875 
Q 4.203125 16.203125 6.546875 18.796875 
Q 8.90625 21.40625 13.5 22.5 
L 29.703125 26.296875 
L 29.796875 32.796875 
Q 29.796875 36.703125 27.75 38.796875 
Q 25.703125 40.90625 21.90625 40.90625 
Q 18.5 40.90625 15.09375 39.296875 
Q 11.703125 37.703125 7.796875 34.296875 
L 7 34.703125 
L 6 40.40625 
Q 14.296875 46.59375 23.09375 46.59375 
z
M 15.09375 17.703125 
Q 13.09375 17.09375 12.1875 16.046875 
Q 11.296875 15 11.296875 12.90625 
Q 11.296875 9.59375 13.140625 7.75 
Q 15 5.90625 18.09375 5.90625 
Q 23.59375 5.90625 29.296875 13 
L 29.59375 21.203125 
z
" id="AlegreyaSans-Regular-97"/>
       <path d="M 29 45.90625 
Q 30.203125 45.90625 31.59375 45.703125 
L 31.59375 38 
L 30.703125 37.703125 
Q 29 38.203125 27 38.203125 
Q 23.703125 38.203125 20.953125 35.546875 
Q 18.203125 32.90625 15.5 27.09375 
L 15.40625 20.09375 
L 15.90625 0 
L 8 0 
L 8.5 19.40625 
L 8.09375 45.296875 
L 15.59375 46 
L 15.5 36.59375 
L 16.09375 36.59375 
Q 18.90625 41.59375 22.296875 43.75 
Q 25.703125 45.90625 29 45.90625 
z
" id="AlegreyaSans-Regular-114"/>
      </defs>
      <use xlink:href="#AlegreyaSans-Regular-67"/>
      <use x="51.999985" xlink:href="#AlegreyaSans-Regular-108"/>
      <use x="76.699982" xlink:href="#AlegreyaSans-Regular-97"/>
      <use x="122.899979" xlink:href="#AlegreyaSans-Regular-105"/>
      <use x="147.099976" xlink:href="#AlegreyaSans-Regular-114"/>
      <use x="179.399963" xlink:href="#AlegreyaSans-Regular-101"/>
     </g>
    </g>
    <g id="line2d_22">
     <path d="M 361.65 208.239375 
L 381.65 208.239375 
" style="fill:none;stroke:#008080;stroke-linecap:square;stroke-width:1.5;"/>
    </g>
    <g id="line2d_23"/>
    <g id="text_16">
     <!-- Eliza -->
     <g style="fill:#dddddd;" transform="translate(389.65 211.739375)scale(0.1 -0.1)">
      <defs>
       <path d="M 45.90625 6.203125 
L 45.296875 0 
L 9.296875 0 
L 9.796875 19.296875 
L 9.296875 64.09375 
L 45.40625 64.09375 
L 45.796875 63.296875 
L 45.203125 57.09375 
L 30.09375 57.40625 
L 17.40625 57.203125 
L 17.203125 36.203125 
L 29.203125 36 
L 39.796875 36.296875 
L 40.40625 35.59375 
L 39.703125 29.40625 
L 28.5 29.59375 
L 17.09375 29.5 
L 17 20 
L 17.296875 6.703125 
L 30 6.59375 
L 45.40625 7 
z
" id="AlegreyaSans-Regular-69"/>
       <path d="M 12.90625 45.796875 
L 33.40625 45.796875 
L 37.203125 45.90625 
L 37.40625 41.09375 
L 11.796875 5.59375 
L 29.90625 5.59375 
L 37.40625 6.296875 
L 37.90625 5.59375 
L 37.203125 -0.203125 
L 28 0 
L 8 0 
L 3.296875 -0.203125 
L 3.296875 4.59375 
L 29 40.296875 
L 11.703125 40.296875 
L 4.59375 39.5 
L 4 40.203125 
L 4.703125 46 
z
" id="AlegreyaSans-Regular-122"/>
      </defs>
      <use xlink:href="#AlegreyaSans-Regular-69"/>
      <use x="48.199997" xlink:href="#AlegreyaSans-Regular-108"/>
      <use x="72.899994" xlink:href="#AlegreyaSans-Regular-105"/>
      <use x="97.099991" xlink:href="#AlegreyaSans-Regular-122"/>
      <use x="138.299988" xlink:href="#AlegreyaSans-Regular-97"/>
     </g>
    </g>
    <g id="line2d_24">
     <path d="M 361.65 222.109688 
L 381.65 222.109688 
" style="fill:none;stroke:#dc143c;stroke-dasharray:5.55,2.4;stroke-dashoffset:0;stroke-width:1.5;"/>
    </g>
    <g id="line2d_25"/>
    <g id="text_17">
     <!-- Grace -->
     <g style="fill:#dddddd;" transform="translate(389.65 225.609688)scale(0.1 -0.1)">
      <defs>
       <path d="M 35 64.59375 
Q 45.09375 64.59375 53.796875 60.09375 
L 52.203125 52.5 
L 51.203125 52.296875 
Q 46.40625 55.296875 42.34375 56.59375 
Q 38.296875 57.90625 33.796875 57.90625 
Q 12.09375 57.90625 12.09375 31.09375 
Q 12.09375 18.203125 17.140625 12.140625 
Q 22.203125 6.09375 32.796875 6.09375 
Q 35.59375 6.09375 38.4375 6.59375 
Q 41.296875 7.09375 45.796875 8.5 
L 46 16 
L 45.90625 25.59375 
L 53.40625 26.203125 
L 53.203125 17.09375 
L 53.59375 3.09375 
Q 47.09375 1.09375 42.09375 0.1875 
Q 37.09375 -0.703125 32.40625 -0.703125 
Q 18.09375 -0.703125 10.9375 7.390625 
Q 3.796875 15.5 3.796875 30.796875 
Q 3.796875 47.296875 11.890625 55.9375 
Q 20 64.59375 35 64.59375 
z
" id="AlegreyaSans-Regular-71"/>
      </defs>
      <use xlink:href="#AlegreyaSans-Regular-71"/>
      <use x="59.999985" xlink:href="#AlegreyaSans-Regular-114"/>
      <use x="92.299973" xlink:href="#AlegreyaSans-Regular-97"/>
      <use x="138.499969" xlink:href="#AlegreyaSans-Regular-99"/>
      <use x="176.999954" xlink:href="#AlegreyaSans-Regular-101"/>
     </g>
    </g>
    <g id="line2d_26">
     <path d="M 361.65 235.98 
L 381.65 235.98 
" style="fill:none;stroke:#ff6347;stroke-dasharray:5.55,2.4;stroke-dashoffset:0;stroke-width:1.5;"/>
    </g>
    <g id="line2d_27"/>
    <g id="text_18">
     <!-- Isla -->
     <g style="fill:#dddddd;" transform="translate(389.65 239.48)scale(0.1 -0.1)">
      <defs>
       <path d="M 17 20 
L 17.40625 0 
L 9.296875 0 
L 9.796875 19.296875 
L 9.296875 64.09375 
L 17.5 64.09375 
z
" id="AlegreyaSans-Regular-73"/>
       <path d="M 20.5 46.5 
Q 26.203125 46.5 31.5 44.296875 
L 30.40625 37.796875 
L 29.203125 37.5 
Q 24.203125 40.796875 19.59375 40.796875 
Q 16.203125 40.796875 14.09375 38.890625 
Q 12 37 12 34.296875 
Q 12 31.59375 14.140625 29.9375 
Q 16.296875 28.296875 20.796875 26.203125 
Q 24.703125 24.40625 27.046875 22.953125 
Q 29.40625 21.5 31.09375 19.09375 
Q 32.796875 16.703125 32.796875 13.203125 
Q 32.796875 9.5 30.890625 6.296875 
Q 29 3.09375 25.296875 1.140625 
Q 21.59375 -0.796875 16.5 -0.796875 
Q 9.5 -0.796875 3.203125 2.5 
L 4.203125 9.296875 
L 5.09375 9.90625 
Q 7.90625 7.5 11.15625 6.203125 
Q 14.40625 4.90625 17.296875 4.90625 
Q 21 4.90625 23.296875 6.953125 
Q 25.59375 9 25.59375 11.796875 
Q 25.59375 14.5 23.4375 16.140625 
Q 21.296875 17.796875 16.796875 19.90625 
Q 12.90625 21.703125 10.5 23.140625 
Q 8.09375 24.59375 6.390625 27.09375 
Q 4.703125 29.59375 4.703125 33.296875 
Q 4.703125 39.09375 8.953125 42.796875 
Q 13.203125 46.5 20.5 46.5 
z
" id="AlegreyaSans-Regular-115"/>
      </defs>
      <use xlink:href="#AlegreyaSans-Regular-73"/>
      <use x="26.799988" xlink:href="#AlegreyaSans-Regular-115"/>
      <use x="63.799973" xlink:href="#AlegreyaSans-Regular-108"/>
      <use x="88.499969" xlink:href="#AlegreyaSans-Regular-97"/>
     </g>
    </g>
   </g>
  </g>
 </g>
 <defs>
  <clipPath id="pa89ea2d0d8">
   <rect height="213.16" width="381.14" x="40.06" y="37.17"/>
  </clipPath>
 </defs>
</svg>
