<?xml version="1.0" encoding="utf-8" standalone="no"?>
<!DOCTYPE svg PUBLIC "-//W3C//DTD SVG 1.1//EN"
  "http://www.w3.org/Graphics/SVG/1.1/DTD/svg11.dtd">
<!-- Created with matplotlib (https://matplotlib.org/) -->
<svg height="288pt" version="1.1" viewBox="0 0 432 288" width="432pt" xmlns="http://www.w3.org/2000/svg" xmlns:xlink="http://www.w3.org/1999/xlink">
 <metadata>
  <rdf:RDF xmlns:cc="http://creativecommons.org/ns#" xmlns:dc="http://purl.org/dc/elements/1.1/" xmlns:rdf="http://www.w3.org/1999/02/22-rdf-syntax-ns#">
   <cc:Work>
    <dc:type rdf:resource="http://purl.org/dc/dcmitype/StillImage"/>
    <dc:date>2020-12-29T12:45:38.153789</dc:date>
    <dc:format>image/svg+xml</dc:format>
    <dc:creator>
     <cc:Agent>
      <dc:title>Matplotlib v3.3.0, https://matplotlib.org/</dc:title>
     </cc:Agent>
    </dc:creator>
   </cc:Work>
  </rdf:RDF>
 </metadata>
 <defs>
  <style type="text/css">*{stroke-linecap:butt;stroke-linejoin:round;}</style>
 </defs>
 <g id="figure_1">
  <g id="patch_1">
   <path d="M 0 288 
L 432 288 
L 432 0 
L 0 0 
z
" style="fill:#21242e;"/>
  </g>
  <g id="axes_1">
   <g id="patch_2">
    <path d="M 40.06 250.23625 
L 421.2 250.23625 
L 421.2 37.17 
L 40.06 37.17 
z
" style="fill:#21242e;"/>
   </g>
   <g id="matplotlib.axis_1">
    <g id="xtick_1">
     <g id="line2d_1">
      <defs>
       <path d="M 0 0 
L 0 3.5 
" id="m0283eecb17" style="stroke:#dddddd;stroke-width:0.8;"/>
      </defs>
      <g>
       <use style="fill:#dddddd;stroke:#dddddd;stroke-width:0.8;" x="57.384545" xlink:href="#m0283eecb17" y="250.23625"/>
      </g>
     </g>
     <g id="text_1">
      <!-- 2 -->
      <g style="fill:#dddddd;" transform="translate(55.109545 264.256562)scale(0.1 -0.1)">
       <defs>
        <path d="M 23 50.203125 
Q 29 50.203125 32.84375 47.140625 
Q 36.703125 44.09375 36.703125 39.09375 
Q 36.703125 35.09375 33.890625 30.140625 
Q 31.09375 25.203125 25 18.09375 
L 14.90625 6.59375 
L 15.09375 6.203125 
L 33.59375 6.203125 
L 42 6.796875 
L 42.59375 6.296875 
L 41.5 -0.40625 
L 31.296875 0 
L 8.90625 0 
L 5.203125 -0.203125 
L 4.703125 0.203125 
L 4.703125 5.203125 
L 18.59375 20.296875 
Q 24 26.296875 26.5 30.25 
Q 29 34.203125 29 37.203125 
Q 29 39.90625 27 41.65625 
Q 25 43.40625 21.40625 43.40625 
Q 17.796875 43.40625 14.25 41.59375 
Q 10.703125 39.796875 7.796875 36.59375 
L 6.796875 36.59375 
L 5.5 42.703125 
Q 9.40625 46.296875 13.90625 48.25 
Q 18.40625 50.203125 23 50.203125 
z
" id="AlegreyaSans-Regular-50"/>
       </defs>
       <use xlink:href="#AlegreyaSans-Regular-50"/>
      </g>
     </g>
    </g>
    <g id="xtick_2">
     <g id="line2d_2">
      <g>
       <use style="fill:#dddddd;stroke:#dddddd;stroke-width:0.8;" x="86.258788" xlink:href="#m0283eecb17" y="250.23625"/>
      </g>
     </g>
     <g id="text_2">
      <!-- 3 -->
      <g style="fill:#dddddd;" transform="translate(84.198632 264.256562)scale(0.1 -0.1)">
       <defs>
        <path d="M 19.09375 50.296875 
Q 25.90625 50.296875 30.09375 46.75 
Q 34.296875 43.203125 34.296875 37.59375 
Q 34.296875 33.296875 31.75 29.296875 
Q 29.203125 25.296875 24.296875 22.796875 
L 24.296875 22.40625 
Q 30.296875 21 33.390625 17.59375 
Q 36.5 14.203125 36.5 9.09375 
Q 36.5 3.59375 33.640625 -0.703125 
Q 30.796875 -5 25.59375 -7.34375 
Q 20.40625 -9.703125 13.703125 -9.703125 
Q 9.09375 -9.703125 3.90625 -8.796875 
L 3.40625 -2 
L 4 -1.5 
Q 8.703125 -3.5 14.203125 -3.5 
Q 20.796875 -3.5 24.890625 -0.34375 
Q 29 2.796875 29 8.09375 
Q 29 12.796875 25.640625 15.5 
Q 22.296875 18.203125 16.09375 18.40625 
L 10.203125 18.40625 
L 9.703125 19 
L 9.90625 24.5 
L 14.296875 24.59375 
Q 17 24.59375 19.796875 26.09375 
Q 22.59375 27.59375 24.4375 30.1875 
Q 26.296875 32.796875 26.296875 35.90625 
Q 26.296875 39.5 23.890625 41.59375 
Q 21.5 43.703125 17.59375 43.703125 
Q 14.5 43.703125 11.546875 42.25 
Q 8.59375 40.796875 5.203125 37.796875 
L 4.296875 37.796875 
L 3.09375 44.09375 
Q 10.59375 50.296875 19.09375 50.296875 
z
" id="AlegreyaSans-Regular-51"/>
       </defs>
       <use xlink:href="#AlegreyaSans-Regular-51"/>
      </g>
     </g>
    </g>
    <g id="xtick_3">
     <g id="line2d_3">
      <g>
       <use style="fill:#dddddd;stroke:#dddddd;stroke-width:0.8;" x="172.881515" xlink:href="#m0283eecb17" y="250.23625"/>
      </g>
     </g>
     <g id="text_3">
      <!-- 6 -->
      <g style="fill:#dddddd;" transform="translate(170.531515 264.256562)scale(0.1 -0.1)">
       <defs>
        <path d="M 26.703125 34.90625 
Q 34.203125 34.90625 38.453125 30.296875 
Q 42.703125 25.703125 42.703125 18 
Q 42.703125 9.703125 37.5 4.453125 
Q 32.296875 -0.796875 23.203125 -0.796875 
Q 14 -0.796875 9.296875 4.890625 
Q 4.59375 10.59375 4.59375 21.09375 
Q 4.59375 33.796875 12.34375 43.796875 
Q 20.09375 53.796875 34.203125 59.40625 
L 34.703125 59.40625 
L 40.90625 55.796875 
L 40.90625 55 
Q 28.90625 50.796875 22.15625 45 
Q 15.40625 39.203125 13.09375 31.203125 
L 13.703125 30.5 
Q 19.703125 34.90625 26.703125 34.90625 
z
M 23.796875 4.703125 
Q 29.40625 4.703125 32.5 7.84375 
Q 35.59375 11 35.59375 16.90625 
Q 35.59375 22.703125 32.6875 25.84375 
Q 29.796875 29 24.5 29 
Q 17.90625 29 11.90625 23.796875 
Q 11.796875 22.90625 11.796875 21.09375 
Q 11.796875 12.90625 14.6875 8.796875 
Q 17.59375 4.703125 23.796875 4.703125 
z
" id="AlegreyaSans-Regular-54"/>
       </defs>
       <use xlink:href="#AlegreyaSans-Regular-54"/>
      </g>
     </g>
    </g>
    <g id="xtick_4">
     <g id="line2d_4">
      <g>
       <use style="fill:#dddddd;stroke:#dddddd;stroke-width:0.8;" x="403.875455" xlink:href="#m0283eecb17" y="250.23625"/>
      </g>
     </g>
     <g id="text_4">
      <!-- 14 -->
      <g style="fill:#dddddd;" transform="translate(399.750455 264.256562)scale(0.1 -0.1)">
       <defs>
        <path d="M 22.5 49.40625 
L 22 20.703125 
L 22.40625 0 
L 14.40625 0 
L 14.90625 19.703125 
L 14.796875 41.09375 
L 1.90625 37.5 
L 1.09375 37.90625 
L 1.09375 44.203125 
L 21.296875 50.203125 
z
" id="AlegreyaSans-Regular-49"/>
        <path d="M 35.203125 7.703125 
L 35 7.703125 
L 35.296875 -8.59375 
L 34.796875 -9.203125 
L 28.796875 -9.703125 
L 28.296875 -9.09375 
L 28.5 7.703125 
L 9.796875 7.703125 
L 3.203125 7.5 
L 2.703125 8.296875 
L 2.703125 13.40625 
L 27.796875 49.796875 
L 35.09375 49.796875 
L 34.90625 13.90625 
L 44.296875 13.90625 
L 44.90625 13.09375 
L 44.40625 7.5 
z
M 28.59375 13.90625 
L 28.59375 40.203125 
L 27.90625 40.203125 
L 9.703125 13.90625 
z
" id="AlegreyaSans-Regular-52"/>
       </defs>
       <use xlink:href="#AlegreyaSans-Regular-49"/>
       <use x="34.399994" xlink:href="#AlegreyaSans-Regular-52"/>
      </g>
     </g>
    </g>
    <g id="text_5">
     <!-- number of withheld names -->
     <g style="fill:#dddddd;" transform="translate(156.086172 276.710156)scale(0.13 -0.13)">
      <defs>
       <path d="M 51.203125 15.296875 
L 51.5 0 
L 41.09375 0 
L 17.40625 35.203125 
L 16.796875 35.203125 
L 16.703125 17 
L 17 0 
L 8.296875 0 
L 8.703125 14.703125 
L 8.40625 50.09375 
L 18.59375 50.09375 
L 42.296875 14.90625 
L 43.09375 14.90625 
L 42.796875 49.796875 
L 51.703125 50.296875 
z
" id="AlegreyaSansSC-Medium-110"/>
       <path d="M 48.203125 24.59375 
L 48.09375 17.203125 
Q 48.203125 8.703125 42.703125 4 
Q 37.203125 -0.703125 27.09375 -0.703125 
Q 17.09375 -0.703125 11.890625 3.9375 
Q 6.703125 8.59375 6.90625 17.203125 
L 7 24.90625 
L 6.703125 50.09375 
L 16.40625 50.09375 
L 15.90625 18.703125 
Q 15.796875 7.296875 27.5 7.296875 
Q 33.296875 7.296875 36.296875 10.140625 
Q 39.296875 13 39.203125 18.703125 
L 38.796875 50.09375 
L 48.5 50.09375 
z
" id="AlegreyaSansSC-Medium-117"/>
       <path d="M 62.796875 0 
L 54.296875 0 
L 53.296875 15.203125 
L 51 35.59375 
L 50.40625 35.59375 
L 37.40625 5.296875 
L 29.90625 5.296875 
L 17.90625 35.59375 
L 17.09375 35.59375 
L 14.90625 16.09375 
L 13.59375 0 
L 5.5 0 
L 10.90625 50.09375 
L 22.09375 50.09375 
L 24.40625 42.703125 
L 33.796875 18 
L 34.5 18 
L 44.5 42.796875 
L 47 50.09375 
L 57.90625 50.09375 
z
" id="AlegreyaSansSC-Medium-109"/>
       <path d="M 34.5 26 
Q 45.296875 23.703125 45.296875 14.203125 
Q 45.296875 -0.296875 22 -0.296875 
Q 14.90625 -0.296875 8.296875 0 
L 8.703125 15 
L 8.296875 50.09375 
L 25.90625 50.203125 
Q 33.703125 50.203125 38.09375 47 
Q 42.5 43.796875 42.5 37.796875 
Q 42.5 33.703125 40.390625 30.640625 
Q 38.296875 27.59375 34.5 26 
z
M 32.5 36.5 
Q 32.5 40 30.203125 41.5 
Q 27.90625 43 22.59375 43 
L 17.796875 43 
L 17.59375 29.09375 
L 25.796875 28.796875 
Q 29.203125 29.59375 30.84375 31.390625 
Q 32.5 33.203125 32.5 36.5 
z
M 23.5 6.703125 
Q 29.296875 6.703125 32.34375 8.703125 
Q 35.40625 10.703125 35.40625 14.59375 
Q 35.40625 17.703125 33.296875 19.453125 
Q 31.203125 21.203125 26.90625 21.90625 
L 17.5 21.796875 
L 17.40625 15.90625 
L 17.59375 7 
Q 20.703125 6.703125 23.5 6.703125 
z
" id="AlegreyaSansSC-Medium-98"/>
       <path d="M 40.5 8 
L 41.203125 7.296875 
L 40.40625 0 
L 8.296875 0 
L 8.703125 15 
L 8.296875 50.09375 
L 40.703125 50.09375 
L 41.296875 49.296875 
L 40.59375 42 
L 27.90625 42.5 
L 17.90625 42.40625 
L 17.703125 29.40625 
L 27.296875 29.296875 
L 36 29.59375 
L 36.5 28.796875 
L 35.90625 21.40625 
L 26.5 21.703125 
L 17.59375 21.59375 
L 17.5 15.90625 
L 17.703125 7.703125 
L 27 7.59375 
z
" id="AlegreyaSansSC-Medium-101"/>
       <path d="M 34.203125 20 
Q 40 11.296875 47.296875 2.296875 
L 47.203125 1.09375 
Q 42 -0.40625 38.09375 -0.703125 
L 36.59375 0.203125 
Q 29.296875 12 26.296875 17.40625 
L 17.5 17.296875 
L 17.5 15.90625 
L 17.90625 0 
L 8.296875 0 
L 8.703125 15 
L 8.296875 50.09375 
L 27.296875 50.203125 
Q 35.40625 50.203125 39.84375 46.34375 
Q 44.296875 42.5 44.296875 35.5 
Q 44.296875 30.59375 41.640625 26.59375 
Q 39 22.59375 34.203125 20 
z
M 17.59375 25 
L 26.296875 24.703125 
Q 34.203125 27 34.203125 34.59375 
Q 34.203125 38.703125 31.796875 40.640625 
Q 29.40625 42.59375 24.5 42.796875 
L 17.90625 42.59375 
z
" id="AlegreyaSansSC-Medium-114"/>
       <path id="AlegreyaSansSC-Medium-32"/>
       <path d="M 28.796875 50.796875 
Q 39.796875 50.796875 45.84375 44.34375 
Q 51.90625 37.90625 51.90625 26.203125 
Q 51.90625 13.203125 45.453125 6.203125 
Q 39 -0.796875 27.09375 -0.796875 
Q 16 -0.796875 10 5.796875 
Q 4 12.40625 4 24.5 
Q 4 37.09375 10.453125 43.9375 
Q 16.90625 50.796875 28.796875 50.796875 
z
M 27.90625 42.90625 
Q 20.703125 42.90625 17.34375 38.84375 
Q 14 34.796875 14 25.703125 
Q 14 15.59375 17.296875 11.296875 
Q 20.59375 7 27.796875 7 
Q 35.09375 7 38.5 11.046875 
Q 41.90625 15.09375 41.90625 24.296875 
Q 41.90625 34.296875 38.59375 38.59375 
Q 35.296875 42.90625 27.90625 42.90625 
z
" id="AlegreyaSansSC-Medium-111"/>
       <path d="M 17.40625 42.40625 
L 17.203125 28 
L 25.203125 27.90625 
L 34.09375 28.203125 
L 34.796875 27.40625 
L 34.09375 20.09375 
L 24.40625 20.296875 
L 17.09375 20.203125 
L 17 15.90625 
L 17.40625 0 
L 7.796875 0 
L 8.203125 15 
L 7.796875 50.09375 
L 38.40625 50.09375 
L 39 49.296875 
L 38.203125 42 
L 25.703125 42.5 
z
" id="AlegreyaSansSC-Medium-102"/>
       <path d="M 57.5 0 
L 47.203125 0 
L 38.5 24.796875 
L 37.796875 24.796875 
L 28.796875 0 
L 18.5 0 
L 3 50.09375 
L 12.703125 50.09375 
L 13.59375 44.09375 
L 24 10.296875 
L 24.703125 10.296875 
L 34.5 37.796875 
L 30.703125 50.09375 
L 40.59375 50.09375 
L 41.796875 43.203125 
L 52.40625 10.296875 
L 53.203125 10.296875 
L 64.90625 43.59375 
L 66.296875 50.09375 
L 75.40625 50.09375 
z
" id="AlegreyaSansSC-Medium-119"/>
       <path d="M 17.5 15.90625 
L 17.90625 0 
L 8.296875 0 
L 8.703125 15 
L 8.296875 50.09375 
L 18 50.09375 
z
" id="AlegreyaSansSC-Medium-105"/>
       <path d="M 41.296875 49.296875 
L 40.703125 41.59375 
L 31 42.296875 
L 26.796875 42.296875 
L 26.59375 15.90625 
L 26.90625 0 
L 17.296875 0 
L 17.703125 15 
L 17.5 42.296875 
L 13.40625 42.296875 
L 3.5 41.59375 
L 2.796875 42.40625 
L 3.5 50.09375 
L 40.796875 50.09375 
z
" id="AlegreyaSansSC-Medium-116"/>
       <path d="M 51.296875 15.90625 
L 51.703125 0 
L 42.09375 0 
L 42.40625 15 
L 42.296875 21 
L 29.40625 21.09375 
L 17.59375 20.90625 
L 17.5 15.90625 
L 17.90625 0 
L 8.296875 0 
L 8.703125 15 
L 8.296875 50.09375 
L 18 50.09375 
L 17.703125 29.296875 
L 30.09375 29.09375 
L 42.296875 29.203125 
L 42.09375 50.09375 
L 51.796875 50.09375 
z
" id="AlegreyaSansSC-Medium-104"/>
       <path d="M 36.5 7.203125 
L 35.796875 0 
L 8 0 
L 8.40625 15 
L 8 50.09375 
L 17.796875 50.09375 
L 17.296875 15.90625 
L 17.40625 8 
L 35.90625 8 
z
" id="AlegreyaSansSC-Medium-108"/>
       <path d="M 28.90625 50.5 
Q 40.40625 50.5 46.546875 44.390625 
Q 52.703125 38.296875 52.703125 26.90625 
Q 52.703125 13.59375 45.890625 6.546875 
Q 39.09375 -0.5 26.5 -0.5 
Q 17 -0.5 8.296875 0 
L 8.703125 15 
L 8.296875 50.09375 
L 28.90625 50.5 
z
M 28.09375 7 
Q 35.203125 7 39 11.390625 
Q 42.796875 15.796875 42.796875 24.703125 
Q 42.796875 34 39.1875 38.25 
Q 35.59375 42.5 28.203125 42.5 
Q 22 42.5 17.90625 42.09375 
L 17.5 15.90625 
L 17.703125 7.703125 
Q 25.203125 7 28.09375 7 
z
" id="AlegreyaSansSC-Medium-100"/>
       <path d="M 48.90625 0 
L 39.203125 0 
L 37.90625 6.203125 
L 36.09375 11.703125 
L 24.90625 11.796875 
L 14.90625 11.703125 
L 13 6.703125 
L 11.59375 0 
L 2.09375 0 
L 20.796875 50.09375 
L 32 50.09375 
z
M 33.59375 19.203125 
L 26.5 41.09375 
L 25.796875 41.09375 
L 17.703125 19.203125 
L 25.59375 19.09375 
z
" id="AlegreyaSansSC-Medium-97"/>
       <path d="M 24.40625 50.703125 
Q 30.796875 50.703125 37.203125 48.203125 
L 35.703125 39.09375 
L 34.203125 38.796875 
Q 28.40625 43.40625 23.203125 43.40625 
Q 19.5 43.40625 17.34375 41.5 
Q 15.203125 39.59375 15.203125 37.09375 
Q 15.203125 34.59375 17.453125 32.9375 
Q 19.703125 31.296875 24.5 29.296875 
Q 29 27.40625 31.75 25.75 
Q 34.5 24.09375 36.5 21.390625 
Q 38.5 18.703125 38.5 14.703125 
Q 38.5 10.59375 36.34375 7.09375 
Q 34.203125 3.59375 29.953125 1.4375 
Q 25.703125 -0.703125 19.703125 -0.703125 
Q 16.09375 -0.703125 12.09375 0.09375 
Q 8.09375 0.90625 4.40625 2.5 
L 5.703125 12.203125 
L 6.796875 12.796875 
Q 9.703125 9.90625 13.640625 8.25 
Q 17.59375 6.59375 20.90625 6.59375 
Q 24.5 6.59375 26.75 8.4375 
Q 29 10.296875 29 13 
Q 29 15.703125 26.703125 17.34375 
Q 24.40625 19 19.59375 21 
Q 15.296875 22.90625 12.5 24.546875 
Q 9.703125 26.203125 7.75 28.953125 
Q 5.796875 31.703125 5.796875 35.703125 
Q 5.796875 39.90625 8.046875 43.296875 
Q 10.296875 46.703125 14.546875 48.703125 
Q 18.796875 50.703125 24.40625 50.703125 
z
" id="AlegreyaSansSC-Medium-115"/>
      </defs>
      <use xlink:href="#AlegreyaSansSC-Medium-110"/>
      <use x="59.999985" xlink:href="#AlegreyaSansSC-Medium-117"/>
      <use x="115.199982" xlink:href="#AlegreyaSansSC-Medium-109"/>
      <use x="183.599976" xlink:href="#AlegreyaSansSC-Medium-98"/>
      <use x="233.199966" xlink:href="#AlegreyaSansSC-Medium-101"/>
      <use x="277.59996" xlink:href="#AlegreyaSansSC-Medium-114"/>
      <use x="328.399948" xlink:href="#AlegreyaSansSC-Medium-32"/>
      <use x="344.399948" xlink:href="#AlegreyaSansSC-Medium-111"/>
      <use x="400.199936" xlink:href="#AlegreyaSansSC-Medium-102"/>
      <use x="439.59993" xlink:href="#AlegreyaSansSC-Medium-32"/>
      <use x="455.59993" xlink:href="#AlegreyaSansSC-Medium-119"/>
      <use x="532.699921" xlink:href="#AlegreyaSansSC-Medium-105"/>
      <use x="559.399918" xlink:href="#AlegreyaSansSC-Medium-116"/>
      <use x="603.499908" xlink:href="#AlegreyaSansSC-Medium-104"/>
      <use x="663.499893" xlink:href="#AlegreyaSansSC-Medium-104"/>
      <use x="723.499878" xlink:href="#AlegreyaSansSC-Medium-101"/>
      <use x="767.899872" xlink:href="#AlegreyaSansSC-Medium-108"/>
      <use x="806.099869" xlink:href="#AlegreyaSansSC-Medium-100"/>
      <use x="862.799866" xlink:href="#AlegreyaSansSC-Medium-32"/>
      <use x="878.799866" xlink:href="#AlegreyaSansSC-Medium-110"/>
      <use x="938.79985" xlink:href="#AlegreyaSansSC-Medium-97"/>
      <use x="990.699844" xlink:href="#AlegreyaSansSC-Medium-109"/>
      <use x="1059.099838" xlink:href="#AlegreyaSansSC-Medium-101"/>
      <use x="1103.499832" xlink:href="#AlegreyaSansSC-Medium-115"/>
     </g>
    </g>
   </g>
   <g id="matplotlib.axis_2">
    <g id="ytick_1">
     <g id="line2d_5">
      <defs>
       <path d="M 0 0 
L -3.5 0 
" id="m2bcdbfff50" style="stroke:#dddddd;stroke-width:0.8;"/>
      </defs>
      <g>
       <use style="fill:#dddddd;stroke:#dddddd;stroke-width:0.8;" x="40.06" xlink:href="#m2bcdbfff50" y="219.763307"/>
      </g>
     </g>
     <g id="text_6">
      <!-- 0% -->
      <g style="fill:#dddddd;" transform="translate(19.539687 223.273463)scale(0.1 -0.1)">
       <defs>
        <path d="M 27 50.40625 
Q 37.09375 50.40625 42.640625 43.84375 
Q 48.203125 37.296875 48.203125 25.203125 
Q 48.203125 12.796875 42.390625 6.046875 
Q 36.59375 -0.703125 26 -0.703125 
Q 15.796875 -0.703125 10.25 5.796875 
Q 4.703125 12.296875 4.703125 24.203125 
Q 4.703125 36.796875 10.5 43.59375 
Q 16.296875 50.40625 27 50.40625 
z
M 26.296875 43.09375 
Q 18.703125 43.09375 14.84375 38.5 
Q 11 33.90625 11 24.796875 
Q 11 15.59375 14.890625 10.9375 
Q 18.796875 6.296875 26.40625 6.296875 
Q 34 6.296875 37.953125 10.84375 
Q 41.90625 15.40625 41.90625 24.296875 
Q 41.90625 33.59375 37.953125 38.34375 
Q 34 43.09375 26.296875 43.09375 
z
" id="AlegreyaSans-Regular-48"/>
        <path d="M 64.40625 65.796875 
L 65 64.40625 
L 17.796875 -9.09375 
L 14.296875 -7.09375 
L 13.796875 -5.90625 
L 60.90625 67.796875 
z
M 19.203125 64.59375 
Q 26 64.59375 29.640625 60.140625 
Q 33.296875 55.703125 33.296875 47.40625 
Q 33.296875 38.5 29.390625 33.84375 
Q 25.5 29.203125 18.203125 29.203125 
Q 11.40625 29.203125 7.703125 33.640625 
Q 4 38.09375 4 46.5 
Q 4 55.296875 7.890625 59.9375 
Q 11.796875 64.59375 19.203125 64.59375 
z
M 18.59375 58.703125 
Q 9.59375 58.703125 9.59375 47 
Q 9.59375 34.703125 18.703125 34.703125 
Q 27.796875 34.703125 27.796875 46.5 
Q 27.796875 58.703125 18.59375 58.703125 
z
M 64.203125 34.90625 
Q 71 34.90625 74.640625 30.5 
Q 78.296875 26.09375 78.296875 17.796875 
Q 78.296875 8.90625 74.4375 4.25 
Q 70.59375 -0.40625 63.203125 -0.40625 
Q 56.40625 -0.40625 52.703125 4.046875 
Q 49 8.5 49 16.796875 
Q 49 25.59375 52.890625 30.25 
Q 56.796875 34.90625 64.203125 34.90625 
z
M 63.59375 29.09375 
Q 54.59375 29.09375 54.59375 17.296875 
Q 54.59375 5.09375 63.703125 5.09375 
Q 72.796875 5.09375 72.796875 16.90625 
Q 72.796875 29.09375 63.59375 29.09375 
z
" id="AlegreyaSans-Regular-37"/>
       </defs>
       <use xlink:href="#AlegreyaSans-Regular-48"/>
       <use x="52.799988" xlink:href="#AlegreyaSans-Regular-37"/>
      </g>
     </g>
    </g>
    <g id="ytick_2">
     <g id="line2d_6">
      <g>
       <use style="fill:#dddddd;stroke:#dddddd;stroke-width:0.8;" x="40.06" xlink:href="#m2bcdbfff50" y="188.067964"/>
      </g>
     </g>
     <g id="text_7">
      <!-- 20% -->
      <g style="fill:#dddddd;" transform="translate(14.989688 191.57812)scale(0.1 -0.1)">
       <use xlink:href="#AlegreyaSans-Regular-50"/>
       <use x="45.499985" xlink:href="#AlegreyaSans-Regular-48"/>
       <use x="98.299973" xlink:href="#AlegreyaSans-Regular-37"/>
      </g>
     </g>
    </g>
    <g id="ytick_3">
     <g id="line2d_7">
      <g>
       <use style="fill:#dddddd;stroke:#dddddd;stroke-width:0.8;" x="40.06" xlink:href="#m2bcdbfff50" y="156.372621"/>
      </g>
     </g>
     <g id="text_8">
      <!-- 40% -->
      <g style="fill:#dddddd;" transform="translate(14.730313 159.882778)scale(0.1 -0.1)">
       <use xlink:href="#AlegreyaSans-Regular-52"/>
       <use x="48.099991" xlink:href="#AlegreyaSans-Regular-48"/>
       <use x="100.899979" xlink:href="#AlegreyaSans-Regular-37"/>
      </g>
     </g>
    </g>
    <g id="ytick_4">
     <g id="line2d_8">
      <g>
       <use style="fill:#dddddd;stroke:#dddddd;stroke-width:0.8;" x="40.06" xlink:href="#m2bcdbfff50" y="124.677279"/>
      </g>
     </g>
     <g id="text_9">
      <!-- 60% -->
      <g style="fill:#dddddd;" transform="translate(14.839688 128.187435)scale(0.1 -0.1)">
       <use xlink:href="#AlegreyaSans-Regular-54"/>
       <use x="46.999985" xlink:href="#AlegreyaSans-Regular-48"/>
       <use x="99.799973" xlink:href="#AlegreyaSans-Regular-37"/>
      </g>
     </g>
    </g>
    <g id="ytick_5">
     <g id="line2d_9">
      <g>
       <use style="fill:#dddddd;stroke:#dddddd;stroke-width:0.8;" x="40.06" xlink:href="#m2bcdbfff50" y="92.981936"/>
      </g>
     </g>
     <g id="text_10">
      <!-- 80% -->
      <g style="fill:#dddddd;" transform="translate(14.799063 96.492092)scale(0.1 -0.1)">
       <defs>
        <path d="M 24.5 59.203125 
Q 31.796875 59.203125 35.9375 55.453125 
Q 40.09375 51.703125 40.09375 45.203125 
Q 40.09375 40.09375 37.5 36.796875 
Q 34.90625 33.5 30.40625 30.90625 
L 30.40625 30.40625 
Q 35.796875 27.796875 38.84375 24.640625 
Q 41.90625 21.5 41.90625 15.796875 
Q 41.90625 8.296875 36.59375 3.796875 
Q 31.296875 -0.703125 22.5 -0.703125 
Q 14.296875 -0.703125 9.546875 3.4375 
Q 4.796875 7.59375 4.796875 14.296875 
Q 4.796875 19.90625 8 23.453125 
Q 11.203125 27 16.5 29.59375 
L 16.5 30.09375 
Q 12.296875 32.296875 9.6875 35.5 
Q 7.09375 38.703125 7.09375 43.90625 
Q 7.09375 51 11.890625 55.09375 
Q 16.703125 59.203125 24.5 59.203125 
z
M 24.09375 53.40625 
Q 19.40625 53.40625 16.59375 50.90625 
Q 13.796875 48.40625 13.796875 44.09375 
Q 13.796875 39.796875 16.4375 37.4375 
Q 19.09375 35.09375 24.09375 33.09375 
Q 28.59375 35 31.140625 37.546875 
Q 33.703125 40.09375 33.703125 44.5 
Q 33.703125 48.703125 31.140625 51.046875 
Q 28.59375 53.40625 24.09375 53.40625 
z
M 22.703125 27.09375 
Q 17.59375 25.296875 14.59375 22.59375 
Q 11.59375 19.90625 11.59375 15.09375 
Q 11.59375 10.59375 14.75 7.796875 
Q 17.90625 5 23.203125 5 
Q 28.703125 5 31.953125 7.84375 
Q 35.203125 10.703125 35.203125 15.296875 
Q 35.203125 18.5 33.5 20.640625 
Q 31.796875 22.796875 29.4375 24.046875 
Q 27.09375 25.296875 22.703125 27.09375 
z
" id="AlegreyaSans-Regular-56"/>
       </defs>
       <use xlink:href="#AlegreyaSans-Regular-56"/>
       <use x="47.399994" xlink:href="#AlegreyaSans-Regular-48"/>
       <use x="100.199982" xlink:href="#AlegreyaSans-Regular-37"/>
      </g>
     </g>
    </g>
    <g id="ytick_6">
     <g id="line2d_10">
      <g>
       <use style="fill:#dddddd;stroke:#dddddd;stroke-width:0.8;" x="40.06" xlink:href="#m2bcdbfff50" y="61.286593"/>
      </g>
     </g>
     <g id="text_11">
      <!-- 100% -->
      <g style="fill:#dddddd;" transform="translate(10.819375 64.796749)scale(0.1 -0.1)">
       <use xlink:href="#AlegreyaSans-Regular-49"/>
       <use x="34.399994" xlink:href="#AlegreyaSans-Regular-48"/>
       <use x="87.199982" xlink:href="#AlegreyaSans-Regular-48"/>
       <use x="139.999969" xlink:href="#AlegreyaSans-Regular-37"/>
      </g>
     </g>
    </g>
   </g>
   <g id="LineCollection_1">
    <path clip-path="url(#pd49d981471)" d="M 57.384545 100.607428 
L 57.384545 53.661099 
" style="fill:none;stroke:#ffa500;stroke-width:1.5;"/>
    <path clip-path="url(#pd49d981471)" d="M 86.258788 107.045342 
L 86.258788 63.825509 
" style="fill:none;stroke:#ffa500;stroke-width:1.5;"/>
    <path clip-path="url(#pd49d981471)" d="M 172.881515 126.139373 
L 172.881515 73.408217 
" style="fill:none;stroke:#ffa500;stroke-width:1.5;"/>
    <path clip-path="url(#pd49d981471)" d="M 403.875455 219.763307 
L 403.875455 219.763307 
" style="fill:none;stroke:#ffa500;stroke-width:1.5;"/>
   </g>
   <g id="LineCollection_2">
    <path clip-path="url(#pd49d981471)" d="M 57.384545 61.286593 
L 57.384545 61.286593 
" style="fill:none;stroke:#ff8c00;stroke-width:1.5;"/>
    <path clip-path="url(#pd49d981471)" d="M 86.258788 61.286593 
L 86.258788 61.286593 
" style="fill:none;stroke:#ff8c00;stroke-width:1.5;"/>
    <path clip-path="url(#pd49d981471)" d="M 172.881515 61.286593 
L 172.881515 61.286593 
" style="fill:none;stroke:#ff8c00;stroke-width:1.5;"/>
    <path clip-path="url(#pd49d981471)" d="M 403.875455 240.55142 
L 403.875455 165.339319 
" style="fill:none;stroke:#ff8c00;stroke-width:1.5;"/>
   </g>
   <g id="LineCollection_3">
    <path clip-path="url(#pd49d981471)" d="M 57.384545 83.26551 
L 57.384545 52.891394 
" style="fill:none;stroke:#9acd32;stroke-width:1.5;"/>
    <path clip-path="url(#pd49d981471)" d="M 86.258788 61.286593 
L 86.258788 61.286593 
" style="fill:none;stroke:#9acd32;stroke-width:1.5;"/>
    <path clip-path="url(#pd49d981471)" d="M 172.881515 61.286593 
L 172.881515 61.286593 
" style="fill:none;stroke:#9acd32;stroke-width:1.5;"/>
    <path clip-path="url(#pd49d981471)" d="M 403.875455 68.612899 
L 403.875455 58.488193 
" style="fill:none;stroke:#9acd32;stroke-width:1.5;"/>
   </g>
   <g id="LineCollection_4">
    <path clip-path="url(#pd49d981471)" d="M 57.384545 61.286593 
L 57.384545 61.286593 
" style="fill:none;stroke:#006400;stroke-width:1.5;"/>
    <path clip-path="url(#pd49d981471)" d="M 86.258788 61.286593 
L 86.258788 61.286593 
" style="fill:none;stroke:#006400;stroke-width:1.5;"/>
    <path clip-path="url(#pd49d981471)" d="M 172.881515 132.317182 
L 172.881515 46.85483 
" style="fill:none;stroke:#006400;stroke-width:1.5;"/>
    <path clip-path="url(#pd49d981471)" d="M 403.875455 119.052397 
L 403.875455 58.502504 
" style="fill:none;stroke:#006400;stroke-width:1.5;"/>
   </g>
   <g id="LineCollection_5">
    <path clip-path="url(#pd49d981471)" d="M 57.384545 61.286593 
L 57.384545 61.286593 
" style="fill:none;stroke:#6495ed;stroke-width:1.5;"/>
    <path clip-path="url(#pd49d981471)" d="M 86.258788 61.286593 
L 86.258788 61.286593 
" style="fill:none;stroke:#6495ed;stroke-width:1.5;"/>
    <path clip-path="url(#pd49d981471)" d="M 172.881515 61.286593 
L 172.881515 61.286593 
" style="fill:none;stroke:#6495ed;stroke-width:1.5;"/>
    <path clip-path="url(#pd49d981471)" d="M 403.875455 71.345864 
L 403.875455 60.283134 
" style="fill:none;stroke:#6495ed;stroke-width:1.5;"/>
   </g>
   <g id="LineCollection_6">
    <path clip-path="url(#pd49d981471)" d="M 57.384545 61.286593 
L 57.384545 61.286593 
" style="fill:none;stroke:#483d8b;stroke-width:1.5;"/>
    <path clip-path="url(#pd49d981471)" d="M 86.258788 61.286593 
L 86.258788 61.286593 
" style="fill:none;stroke:#483d8b;stroke-width:1.5;"/>
    <path clip-path="url(#pd49d981471)" d="M 172.881515 61.286593 
L 172.881515 61.286593 
" style="fill:none;stroke:#483d8b;stroke-width:1.5;"/>
    <path clip-path="url(#pd49d981471)" d="M 403.875455 67.566284 
L 403.875455 58.887965 
" style="fill:none;stroke:#483d8b;stroke-width:1.5;"/>
   </g>
   <g id="line2d_11">
    <defs>
     <path d="M 5 0 
L -5 -0 
" id="md7828bee72" style="stroke:#ffa500;"/>
    </defs>
    <g clip-path="url(#pd49d981471)">
     <use style="fill:#ffa500;stroke:#ffa500;" x="57.384545" xlink:href="#md7828bee72" y="100.607428"/>
     <use style="fill:#ffa500;stroke:#ffa500;" x="86.258788" xlink:href="#md7828bee72" y="107.045342"/>
     <use style="fill:#ffa500;stroke:#ffa500;" x="172.881515" xlink:href="#md7828bee72" y="126.139373"/>
     <use style="fill:#ffa500;stroke:#ffa500;" x="403.875455" xlink:href="#md7828bee72" y="219.763307"/>
    </g>
   </g>
   <g id="line2d_12">
    <g clip-path="url(#pd49d981471)">
     <use style="fill:#ffa500;stroke:#ffa500;" x="57.384545" xlink:href="#md7828bee72" y="53.661099"/>
     <use style="fill:#ffa500;stroke:#ffa500;" x="86.258788" xlink:href="#md7828bee72" y="63.825509"/>
     <use style="fill:#ffa500;stroke:#ffa500;" x="172.881515" xlink:href="#md7828bee72" y="73.408217"/>
     <use style="fill:#ffa500;stroke:#ffa500;" x="403.875455" xlink:href="#md7828bee72" y="219.763307"/>
    </g>
   </g>
   <g id="line2d_13">
    <defs>
     <path d="M 5 0 
L -5 -0 
" id="m8b8052aa58" style="stroke:#ff8c00;"/>
    </defs>
    <g clip-path="url(#pd49d981471)">
     <use style="fill:#ff8c00;stroke:#ff8c00;" x="57.384545" xlink:href="#m8b8052aa58" y="61.286593"/>
     <use style="fill:#ff8c00;stroke:#ff8c00;" x="86.258788" xlink:href="#m8b8052aa58" y="61.286593"/>
     <use style="fill:#ff8c00;stroke:#ff8c00;" x="172.881515" xlink:href="#m8b8052aa58" y="61.286593"/>
     <use style="fill:#ff8c00;stroke:#ff8c00;" x="403.875455" xlink:href="#m8b8052aa58" y="240.55142"/>
    </g>
   </g>
   <g id="line2d_14">
    <g clip-path="url(#pd49d981471)">
     <use style="fill:#ff8c00;stroke:#ff8c00;" x="57.384545" xlink:href="#m8b8052aa58" y="61.286593"/>
     <use style="fill:#ff8c00;stroke:#ff8c00;" x="86.258788" xlink:href="#m8b8052aa58" y="61.286593"/>
     <use style="fill:#ff8c00;stroke:#ff8c00;" x="172.881515" xlink:href="#m8b8052aa58" y="61.286593"/>
     <use style="fill:#ff8c00;stroke:#ff8c00;" x="403.875455" xlink:href="#m8b8052aa58" y="165.339319"/>
    </g>
   </g>
   <g id="line2d_15">
    <defs>
     <path d="M 5 0 
L -5 -0 
" id="m39a30b25a8" style="stroke:#9acd32;"/>
    </defs>
    <g clip-path="url(#pd49d981471)">
     <use style="fill:#9acd32;stroke:#9acd32;" x="57.384545" xlink:href="#m39a30b25a8" y="83.26551"/>
     <use style="fill:#9acd32;stroke:#9acd32;" x="86.258788" xlink:href="#m39a30b25a8" y="61.286593"/>
     <use style="fill:#9acd32;stroke:#9acd32;" x="172.881515" xlink:href="#m39a30b25a8" y="61.286593"/>
     <use style="fill:#9acd32;stroke:#9acd32;" x="403.875455" xlink:href="#m39a30b25a8" y="68.612899"/>
    </g>
   </g>
   <g id="line2d_16">
    <g clip-path="url(#pd49d981471)">
     <use style="fill:#9acd32;stroke:#9acd32;" x="57.384545" xlink:href="#m39a30b25a8" y="52.891394"/>
     <use style="fill:#9acd32;stroke:#9acd32;" x="86.258788" xlink:href="#m39a30b25a8" y="61.286593"/>
     <use style="fill:#9acd32;stroke:#9acd32;" x="172.881515" xlink:href="#m39a30b25a8" y="61.286593"/>
     <use style="fill:#9acd32;stroke:#9acd32;" x="403.875455" xlink:href="#m39a30b25a8" y="58.488193"/>
    </g>
   </g>
   <g id="line2d_17">
    <defs>
     <path d="M 5 0 
L -5 -0 
" id="m601da677ce" style="stroke:#006400;"/>
    </defs>
    <g clip-path="url(#pd49d981471)">
     <use style="fill:#006400;stroke:#006400;" x="57.384545" xlink:href="#m601da677ce" y="61.286593"/>
     <use style="fill:#006400;stroke:#006400;" x="86.258788" xlink:href="#m601da677ce" y="61.286593"/>
     <use style="fill:#006400;stroke:#006400;" x="172.881515" xlink:href="#m601da677ce" y="132.317182"/>
     <use style="fill:#006400;stroke:#006400;" x="403.875455" xlink:href="#m601da677ce" y="119.052397"/>
    </g>
   </g>
   <g id="line2d_18">
    <g clip-path="url(#pd49d981471)">
     <use style="fill:#006400;stroke:#006400;" x="57.384545" xlink:href="#m601da677ce" y="61.286593"/>
     <use style="fill:#006400;stroke:#006400;" x="86.258788" xlink:href="#m601da677ce" y="61.286593"/>
     <use style="fill:#006400;stroke:#006400;" x="172.881515" xlink:href="#m601da677ce" y="46.85483"/>
     <use style="fill:#006400;stroke:#006400;" x="403.875455" xlink:href="#m601da677ce" y="58.502504"/>
    </g>
   </g>
   <g id="line2d_19">
    <defs>
     <path d="M 5 0 
L -5 -0 
" id="m5c396fcaa1" style="stroke:#6495ed;"/>
    </defs>
    <g clip-path="url(#pd49d981471)">
     <use style="fill:#6495ed;stroke:#6495ed;" x="57.384545" xlink:href="#m5c396fcaa1" y="61.286593"/>
     <use style="fill:#6495ed;stroke:#6495ed;" x="86.258788" xlink:href="#m5c396fcaa1" y="61.286593"/>
     <use style="fill:#6495ed;stroke:#6495ed;" x="172.881515" xlink:href="#m5c396fcaa1" y="61.286593"/>
     <use style="fill:#6495ed;stroke:#6495ed;" x="403.875455" xlink:href="#m5c396fcaa1" y="71.345864"/>
    </g>
   </g>
   <g id="line2d_20">
    <g clip-path="url(#pd49d981471)">
     <use style="fill:#6495ed;stroke:#6495ed;" x="57.384545" xlink:href="#m5c396fcaa1" y="61.286593"/>
     <use style="fill:#6495ed;stroke:#6495ed;" x="86.258788" xlink:href="#m5c396fcaa1" y="61.286593"/>
     <use style="fill:#6495ed;stroke:#6495ed;" x="172.881515" xlink:href="#m5c396fcaa1" y="61.286593"/>
     <use style="fill:#6495ed;stroke:#6495ed;" x="403.875455" xlink:href="#m5c396fcaa1" y="60.283134"/>
    </g>
   </g>
   <g id="line2d_21">
    <defs>
     <path d="M 5 0 
L -5 -0 
" id="me7836f00b5" style="stroke:#483d8b;"/>
    </defs>
    <g clip-path="url(#pd49d981471)">
     <use style="fill:#483d8b;stroke:#483d8b;" x="57.384545" xlink:href="#me7836f00b5" y="61.286593"/>
     <use style="fill:#483d8b;stroke:#483d8b;" x="86.258788" xlink:href="#me7836f00b5" y="61.286593"/>
     <use style="fill:#483d8b;stroke:#483d8b;" x="172.881515" xlink:href="#me7836f00b5" y="61.286593"/>
     <use style="fill:#483d8b;stroke:#483d8b;" x="403.875455" xlink:href="#me7836f00b5" y="67.566284"/>
    </g>
   </g>
   <g id="line2d_22">
    <g clip-path="url(#pd49d981471)">
     <use style="fill:#483d8b;stroke:#483d8b;" x="57.384545" xlink:href="#me7836f00b5" y="61.286593"/>
     <use style="fill:#483d8b;stroke:#483d8b;" x="86.258788" xlink:href="#me7836f00b5" y="61.286593"/>
     <use style="fill:#483d8b;stroke:#483d8b;" x="172.881515" xlink:href="#me7836f00b5" y="61.286593"/>
     <use style="fill:#483d8b;stroke:#483d8b;" x="403.875455" xlink:href="#me7836f00b5" y="58.887965"/>
    </g>
   </g>
   <g id="line2d_23">
    <path clip-path="url(#pd49d981471)" d="M 57.384545 77.134264 
L 86.258788 85.435425 
L 172.881515 99.773795 
L 403.875455 219.763307 
" style="fill:none;stroke:#ffa500;stroke-dasharray:5.55,2.4;stroke-dashoffset:0;stroke-width:1.5;"/>
   </g>
   <g id="line2d_24">
    <path clip-path="url(#pd49d981471)" d="M 57.384545 61.286593 
L 86.258788 61.286593 
L 172.881515 61.286593 
L 403.875455 202.94537 
" style="fill:none;stroke:#ff8c00;stroke-linecap:square;stroke-width:1.5;"/>
   </g>
   <g id="line2d_25">
    <path clip-path="url(#pd49d981471)" d="M 57.384545 68.078452 
L 86.258788 61.286593 
L 172.881515 61.286593 
L 403.875455 63.550546 
" style="fill:none;stroke:#9acd32;stroke-dasharray:5.55,2.4;stroke-dashoffset:0;stroke-width:1.5;"/>
   </g>
   <g id="line2d_26">
    <path clip-path="url(#pd49d981471)" d="M 57.384545 61.286593 
L 86.258788 61.286593 
L 172.881515 89.586006 
L 403.875455 88.777451 
" style="fill:none;stroke:#006400;stroke-linecap:square;stroke-width:1.5;"/>
   </g>
   <g id="line2d_27">
    <path clip-path="url(#pd49d981471)" d="M 57.384545 61.286593 
L 86.258788 61.286593 
L 172.881515 61.286593 
L 403.875455 65.814499 
" style="fill:none;stroke:#6495ed;stroke-dasharray:5.55,2.4;stroke-dashoffset:0;stroke-width:1.5;"/>
   </g>
   <g id="line2d_28">
    <path clip-path="url(#pd49d981471)" d="M 57.384545 61.286593 
L 86.258788 61.286593 
L 172.881515 61.286593 
L 403.875455 63.227124 
" style="fill:none;stroke:#483d8b;stroke-linecap:square;stroke-width:1.5;"/>
   </g>
   <g id="patch_3">
    <path d="M 40.06 250.23625 
L 40.06 37.17 
" style="fill:none;stroke:#dddddd;stroke-linecap:square;stroke-linejoin:miter;stroke-width:0.8;"/>
   </g>
   <g id="patch_4">
    <path d="M 40.06 250.23625 
L 421.2 250.23625 
" style="fill:none;stroke:#dddddd;stroke-linecap:square;stroke-linejoin:miter;stroke-width:0.8;"/>
   </g>
   <g id="text_12">
    <!-- Mean Generalization Accuracy -->
    <g style="fill:#dddddd;" transform="translate(40.06 22.17)scale(0.16 -0.16)">
     <defs>
      <path d="M 74.90625 0 
L 62.90625 0 
L 61.90625 19.5 
L 59.59375 44.296875 
L 58.59375 44.296875 
L 44.203125 6.796875 
L 33.703125 6.796875 
L 20.59375 44.296875 
L 19.703125 44.296875 
L 17.203125 20.796875 
L 15.796875 0 
L 4.40625 0 
L 10.90625 64.40625 
L 26.5 64.40625 
L 29.09375 54.90625 
L 39.296875 24.40625 
L 40.203125 24.40625 
L 50.90625 54.90625 
L 53.796875 64.40625 
L 69.09375 64.40625 
z
" id="AlegreyaSans-Bold-77"/>
      <path d="M 42.09375 21.59375 
L 15.09375 21.40625 
Q 16 8.90625 27.796875 8.90625 
Q 34 8.90625 41.59375 12.40625 
L 42.703125 11.703125 
L 40.703125 1.796875 
Q 33.09375 -1 26.40625 -1 
Q 15.40625 -1 9.15625 5.390625 
Q 2.90625 11.796875 2.90625 23.09375 
Q 2.90625 34.296875 9 40.84375 
Q 15.09375 47.40625 25.5 47.40625 
Q 34.40625 47.40625 39.25 42.546875 
Q 44.09375 37.703125 44.09375 29 
Q 44.09375 26.703125 43.59375 23.203125 
z
M 32.5 30.5 
Q 32.5 34.5 30.703125 36.546875 
Q 28.90625 38.59375 25.40625 38.59375 
Q 21.5 38.59375 18.890625 36.046875 
Q 16.296875 33.5 15.40625 28.703125 
L 32.296875 29.09375 
z
" id="AlegreyaSans-Bold-101"/>
      <path d="M 24.40625 47.40625 
Q 32.09375 47.40625 36.4375 43.953125 
Q 40.796875 40.5 40.796875 34.296875 
Q 40.796875 32.5 40.203125 22.90625 
Q 40.09375 20.09375 39.890625 17.140625 
Q 39.703125 14.203125 39.703125 12.09375 
Q 39.703125 10.40625 40.203125 9.75 
Q 40.703125 9.09375 42 9.09375 
Q 43 9.09375 44.59375 9.5 
L 45.59375 8.703125 
L 44.40625 1.703125 
Q 41.203125 -0.40625 37.09375 -0.796875 
Q 34.09375 -0.5 32.09375 1.34375 
Q 30.09375 3.203125 29.40625 6.5 
L 28.703125 6.5 
Q 23.703125 1.203125 18.40625 -0.90625 
Q 11.203125 -0.796875 7.09375 2.890625 
Q 3 6.59375 3 13 
Q 3 18 5.546875 20.84375 
Q 8.09375 23.703125 13.296875 24.703125 
L 28.59375 27.59375 
L 28.59375 31.703125 
Q 28.59375 38.203125 22.203125 38.203125 
Q 19.09375 38.203125 15.640625 36.796875 
Q 12.203125 35.40625 7.90625 32.40625 
L 6.90625 33 
L 5.40625 41.796875 
Q 9.703125 44.5 14.59375 45.953125 
Q 19.5 47.40625 24.40625 47.40625 
z
M 17.90625 18.59375 
Q 16.296875 18.203125 15.546875 17.25 
Q 14.796875 16.296875 14.796875 14.40625 
Q 14.796875 11.796875 16.1875 10.34375 
Q 17.59375 8.90625 20.09375 8.90625 
Q 24 8.90625 28.296875 13.5 
L 28.5 20.90625 
z
" id="AlegreyaSans-Bold-97"/>
      <path d="M 34.703125 29 
Q 34.796875 32.5 33.140625 34.453125 
Q 31.5 36.40625 28.40625 36.40625 
Q 23.90625 36.40625 18.796875 32.09375 
L 18.796875 20.5 
L 19.40625 0 
L 6.09375 0 
L 6.796875 19.203125 
L 6.296875 45.59375 
L 18.90625 46.703125 
L 18.90625 39.90625 
L 19.59375 39.90625 
Q 25.09375 44.90625 31.59375 47.09375 
Q 39.203125 47.09375 43.203125 43.640625 
Q 47.203125 40.203125 47 33.703125 
L 46.703125 20.40625 
L 47.296875 0 
L 33.90625 0 
z
" id="AlegreyaSans-Bold-110"/>
      <path id="AlegreyaSans-Bold-32"/>
      <path d="M 36.40625 65.203125 
Q 46.90625 65.203125 55.296875 61.296875 
L 52.40625 49.09375 
L 51.09375 48.90625 
Q 46.203125 51.703125 42.34375 52.953125 
Q 38.5 54.203125 34.09375 54.203125 
Q 25.203125 54.203125 21.09375 48.890625 
Q 17 43.59375 17 31.5 
Q 17 23.5 18.75 18.796875 
Q 20.5 14.09375 24.203125 11.9375 
Q 27.90625 9.796875 34 9.796875 
Q 36.09375 9.796875 37.9375 10.09375 
Q 39.796875 10.40625 42.5 11.203125 
L 42.703125 16.703125 
L 42.5 26.90625 
L 55 27.796875 
L 54.703125 18.796875 
L 55 3.09375 
Q 43 -0.90625 32.90625 -0.90625 
Q 17.90625 -0.90625 10.34375 7.296875 
Q 2.796875 15.5 2.796875 30.796875 
Q 2.796875 47.5 11.546875 56.34375 
Q 20.296875 65.203125 36.40625 65.203125 
z
" id="AlegreyaSans-Bold-71"/>
      <path d="M 31.796875 46.59375 
Q 32.703125 46.59375 34.296875 46.40625 
L 34.296875 34.09375 
L 32.90625 33.59375 
Q 31.203125 34.296875 29.203125 34.296875 
Q 23.40625 34.296875 18.703125 26.796875 
L 18.703125 20.5 
L 19.40625 0 
L 6.09375 0 
L 6.90625 19.203125 
L 6.296875 45.59375 
L 18.90625 46.703125 
L 18.796875 37.59375 
L 19.59375 37.59375 
Q 24.5 46.59375 31.796875 46.59375 
z
" id="AlegreyaSans-Bold-114"/>
      <path d="M 19.09375 20.5 
L 19.796875 0 
L 6.5 0 
L 7.203125 19.296875 
L 6.59375 69.203125 
L 19.90625 70.203125 
z
" id="AlegreyaSans-Bold-108"/>
      <path d="M 7 19.203125 
L 6.5 45.59375 
L 19.59375 46.703125 
L 19 20.5 
L 19.59375 0 
L 6.296875 0 
z
M 13.296875 69.296875 
Q 16.40625 69.296875 18.15625 67.5 
Q 19.90625 65.703125 19.90625 62.5 
Q 19.90625 59.09375 18 57.09375 
Q 16.09375 55.09375 12.796875 55.09375 
Q 9.5 55.09375 7.75 56.890625 
Q 6 58.703125 6 62 
Q 6 65.296875 7.953125 67.296875 
Q 9.90625 69.296875 13.296875 69.296875 
z
" id="AlegreyaSans-Bold-105"/>
      <path d="M 13.796875 46.5 
L 34 46.5 
L 39.09375 46.59375 
L 39.203125 38.703125 
L 16.703125 8.5 
L 30.796875 8.5 
L 39.296875 9.296875 
L 40 8.40625 
L 39.09375 -0.203125 
L 27.5 0 
L 9.09375 0 
L 2.703125 -0.296875 
L 2.703125 7.5 
L 25.40625 37.90625 
L 12 37.90625 
L 3.703125 37.203125 
L 2.90625 38.09375 
L 3.90625 46.703125 
z
" id="AlegreyaSans-Bold-122"/>
      <path d="M 24.90625 9.796875 
Q 28.09375 9.796875 31.59375 11.5 
L 32.703125 10.5 
L 31.40625 2.59375 
Q 26.296875 0 21 -0.59375 
Q 7.5 0.796875 7.5 12.59375 
L 8 20.90625 
L 7.90625 38.09375 
L 1.703125 38.09375 
L 1.203125 38.796875 
L 1.90625 46.09375 
L 7.796875 46.09375 
L 7.796875 53.796875 
L 19.90625 57.703125 
L 20.796875 56.90625 
L 20.5 46.09375 
L 32.40625 46.09375 
L 32.796875 45.40625 
L 32.203125 38.09375 
L 20.296875 38.09375 
L 19.703125 15.703125 
Q 19.703125 12.5 20.890625 11.140625 
Q 22.09375 9.796875 24.90625 9.796875 
z
" id="AlegreyaSans-Bold-116"/>
      <path d="M 25.40625 47.40625 
Q 35.59375 47.40625 41 41.40625 
Q 46.40625 35.40625 46.40625 24.09375 
Q 46.40625 11.90625 40.59375 5.453125 
Q 34.796875 -1 23.90625 -1 
Q 13.703125 -1 8.296875 5 
Q 2.90625 11 2.90625 22.296875 
Q 2.90625 34.5 8.703125 40.953125 
Q 14.5 47.40625 25.40625 47.40625 
z
M 24.5 38.40625 
Q 19.703125 38.40625 17.546875 35.203125 
Q 15.40625 32 15.40625 24.90625 
Q 15.40625 15.703125 17.59375 11.796875 
Q 19.796875 7.90625 24.796875 7.90625 
Q 29.59375 7.90625 31.75 11.046875 
Q 33.90625 14.203125 33.90625 21.40625 
Q 33.90625 30.5 31.65625 34.453125 
Q 29.40625 38.40625 24.5 38.40625 
z
" id="AlegreyaSans-Bold-111"/>
      <path d="M 58.40625 0 
L 44.59375 0 
L 43 8.40625 
L 41.296875 14.40625 
L 28.703125 14.703125 
L 17.59375 14.40625 
L 15.90625 9.09375 
L 14.203125 0 
L 0.796875 0 
L 22.59375 64.40625 
L 38.703125 64.40625 
z
M 38.40625 24.90625 
L 30.796875 51.703125 
L 29.90625 51.703125 
L 21.09375 24.90625 
L 29.703125 24.703125 
z
" id="AlegreyaSans-Bold-65"/>
      <path d="M 25.203125 47.40625 
Q 28.5 47.40625 31.75 46.75 
Q 35 46.09375 37.5 44.90625 
L 35.296875 34.296875 
L 34.203125 33.796875 
Q 29.09375 36.59375 25.09375 36.59375 
Q 20.5 36.59375 18 33.296875 
Q 15.5 30 15.5 23.90625 
Q 15.5 16.90625 18.203125 13.203125 
Q 20.90625 9.5 25.90625 9.5 
Q 30.40625 9.5 35.90625 12 
L 36.90625 11.203125 
L 35.59375 0.90625 
Q 29.59375 -1 23.296875 -1 
Q 13.703125 -1 8.296875 5.25 
Q 2.90625 11.5 2.90625 22.703125 
Q 2.90625 34.296875 8.796875 40.84375 
Q 14.703125 47.40625 25.203125 47.40625 
z
" id="AlegreyaSans-Bold-99"/>
      <path d="M 50.5 8.703125 
L 49.296875 1.703125 
Q 45.59375 -0.703125 41.703125 -0.796875 
Q 38.796875 -0.296875 36.890625 1.5 
Q 35 3.296875 34 6.703125 
L 33.09375 6.703125 
Q 27.40625 1.09375 21.296875 -0.59375 
Q 13.703125 -0.59375 9.75 2.84375 
Q 5.796875 6.296875 5.90625 12.796875 
L 6.09375 24.59375 
L 5.59375 45.59375 
L 18.5 46.703125 
L 18.203125 17.203125 
Q 18.09375 13.703125 19.59375 11.890625 
Q 21.09375 10.09375 24.09375 10.09375 
Q 28.5 10.09375 32.796875 14 
L 32.796875 45.59375 
L 45.5 46.703125 
L 44.59375 12.09375 
Q 44.59375 10.5 45.140625 9.796875 
Q 45.703125 9.09375 46.90625 9.09375 
Q 48 9.09375 49.59375 9.5 
z
" id="AlegreyaSans-Bold-117"/>
      <path d="M 14.09375 39.40625 
L 22.40625 13.40625 
L 23.203125 13.40625 
L 31.5 38.296875 
L 33.203125 46.5 
L 44.59375 46.5 
L 29.40625 3.09375 
Q 27 -3.703125 24 -7.84375 
Q 21 -12 16.5 -14.640625 
Q 12 -17.296875 4.90625 -19.203125 
L 3.90625 -19.09375 
Q 0.5 -15.796875 -1.703125 -11.296875 
L -1.296875 -10 
Q 5 -8.90625 9.09375 -6.75 
Q 13.203125 -4.59375 16.90625 0 
L -0.09375 46.203125 
L 12.5 46.796875 
z
" id="AlegreyaSans-Bold-121"/>
     </defs>
     <use xlink:href="#AlegreyaSans-Bold-77"/>
     <use x="79.699982" xlink:href="#AlegreyaSans-Bold-101"/>
     <use x="126.899979" xlink:href="#AlegreyaSans-Bold-97"/>
     <use x="174.999969" xlink:href="#AlegreyaSans-Bold-110"/>
     <use x="227.899963" xlink:href="#AlegreyaSans-Bold-32"/>
     <use x="242.999954" xlink:href="#AlegreyaSans-Bold-71"/>
     <use x="302.799942" xlink:href="#AlegreyaSans-Bold-101"/>
     <use x="349.999939" xlink:href="#AlegreyaSans-Bold-110"/>
     <use x="402.899933" xlink:href="#AlegreyaSans-Bold-101"/>
     <use x="450.09993" xlink:href="#AlegreyaSans-Bold-114"/>
     <use x="484.899918" xlink:href="#AlegreyaSans-Bold-97"/>
     <use x="532.999908" xlink:href="#AlegreyaSans-Bold-108"/>
     <use x="559.299896" xlink:href="#AlegreyaSans-Bold-105"/>
     <use x="585.399887" xlink:href="#AlegreyaSans-Bold-122"/>
     <use x="627.799881" xlink:href="#AlegreyaSans-Bold-97"/>
     <use x="675.899872" xlink:href="#AlegreyaSans-Bold-116"/>
     <use x="709.69986" xlink:href="#AlegreyaSans-Bold-105"/>
     <use x="735.79985" xlink:href="#AlegreyaSans-Bold-111"/>
     <use x="785.199844" xlink:href="#AlegreyaSans-Bold-110"/>
     <use x="838.099838" xlink:href="#AlegreyaSans-Bold-32"/>
     <use x="853.199829" xlink:href="#AlegreyaSans-Bold-65"/>
     <use x="913.199814" xlink:href="#AlegreyaSans-Bold-99"/>
     <use x="951.699799" xlink:href="#AlegreyaSans-Bold-99"/>
     <use x="990.199783" xlink:href="#AlegreyaSans-Bold-117"/>
     <use x="1042.39978" xlink:href="#AlegreyaSans-Bold-114"/>
     <use x="1077.199768" xlink:href="#AlegreyaSans-Bold-97"/>
     <use x="1125.299759" xlink:href="#AlegreyaSans-Bold-99"/>
     <use x="1163.799744" xlink:href="#AlegreyaSans-Bold-121"/>
    </g>
   </g>
   <g id="legend_1">
    <g id="line2d_29">
     <path d="M 49.06 166.534687 
L 69.06 166.534687 
" style="fill:none;stroke:#ffa500;stroke-dasharray:5.55,2.4;stroke-dashoffset:0;stroke-width:1.5;"/>
    </g>
    <g id="line2d_30"/>
    <g id="text_13">
     <!-- SRN (−) -->
     <g style="fill:#dddddd;" transform="translate(77.06 170.034687)scale(0.1 -0.1)">
      <defs>
       <path d="M 26.703125 64.59375 
Q 33.59375 64.59375 41 61.59375 
L 39.703125 53.90625 
L 38.296875 53.5 
Q 35.40625 55.703125 32.15625 56.890625 
Q 28.90625 58.09375 25.703125 58.09375 
Q 22 58.09375 19.25 56.59375 
Q 16.5 55.09375 15.046875 52.6875 
Q 13.59375 50.296875 13.59375 47.703125 
Q 13.59375 45 15.25 42.953125 
Q 16.90625 40.90625 19.40625 39.40625 
Q 21.90625 37.90625 26.203125 35.796875 
Q 31.59375 33.296875 34.890625 31.140625 
Q 38.203125 29 40.546875 25.703125 
Q 42.90625 22.40625 42.90625 17.703125 
Q 42.90625 12.703125 40.203125 8.5 
Q 37.5 4.296875 32.59375 1.796875 
Q 27.703125 -0.703125 21.40625 -0.703125 
Q 17.203125 -0.703125 12.640625 0.4375 
Q 8.09375 1.59375 4.203125 3.796875 
L 5.203125 12 
L 6.296875 12.5 
Q 9.796875 9.09375 14.046875 7.4375 
Q 18.296875 5.796875 22.203125 5.796875 
Q 26 5.796875 28.953125 7.296875 
Q 31.90625 8.796875 33.453125 11.296875 
Q 35 13.796875 35 16.59375 
Q 35 20.796875 31.796875 23.34375 
Q 28.59375 25.90625 22.09375 28.90625 
Q 16.796875 31.5 13.59375 33.546875 
Q 10.40625 35.59375 8.09375 38.84375 
Q 5.796875 42.09375 5.796875 46.796875 
Q 5.796875 51.703125 8.4375 55.796875 
Q 11.09375 59.90625 15.84375 62.25 
Q 20.59375 64.59375 26.703125 64.59375 
z
" id="AlegreyaSans-Regular-83"/>
       <path d="M 35.40625 25.90625 
Q 42 15 52 1.90625 
L 51.90625 0.90625 
Q 48.296875 -0.5 44.5 -0.90625 
L 43.40625 -0.203125 
Q 35.203125 12.09375 28.703125 23.796875 
L 17 23.796875 
L 17 20 
L 17.40625 0 
L 9.296875 0 
L 9.796875 19.296875 
L 9.296875 64.09375 
L 28.90625 64.203125 
Q 38.296875 64.203125 43.4375 59.453125 
Q 48.59375 54.703125 48.59375 45.90625 
Q 48.59375 39.296875 45.140625 34.046875 
Q 41.703125 28.796875 35.40625 25.90625 
z
M 17.09375 30.59375 
L 29.09375 30.296875 
Q 40.296875 33.5 40.296875 45.203125 
Q 40.296875 51.296875 37 54.34375 
Q 33.703125 57.40625 27.09375 57.59375 
L 17.40625 57.296875 
z
" id="AlegreyaSans-Regular-82"/>
       <path d="M 58.5 18.796875 
L 58.703125 0 
L 50.296875 0 
L 17.09375 51.296875 
L 16.59375 51.296875 
L 16.5 21.09375 
L 16.59375 0 
L 9.40625 0 
L 9.703125 19 
L 9.5 64.09375 
L 17.796875 64.09375 
L 50.90625 12.796875 
L 51.59375 12.796875 
L 51.5 63.703125 
L 59 64.296875 
z
" id="AlegreyaSans-Regular-78"/>
       <path id="AlegreyaSans-Regular-32"/>
       <path d="M 28.296875 63.59375 
L 28.296875 62.796875 
Q 21 57 17.890625 48.453125 
Q 14.796875 39.90625 14.703125 25.703125 
Q 14.796875 11.796875 17.890625 3.390625 
Q 21 -5 28.296875 -10.703125 
L 28.296875 -11.5 
L 25.40625 -14.09375 
L 24.703125 -14.09375 
Q 15.90625 -7.703125 12.09375 1.4375 
Q 8.296875 10.59375 8.203125 25.59375 
Q 8.296875 41.09375 12.09375 50.4375 
Q 15.90625 59.796875 24.703125 66.203125 
L 25.40625 66.203125 
z
" id="AlegreyaSans-Regular-40"/>
       <path d="M 44.90625 28.703125 
L 44.40625 23.703125 
L 3.703125 23.703125 
L 3.09375 24.296875 
L 3.59375 29.296875 
L 44.296875 29.296875 
z
" id="AlegreyaSans-Regular-8722"/>
       <path d="M 0.703125 -11.5 
L 0.703125 -10.703125 
Q 8 -4.90625 11.09375 3.640625 
Q 14.203125 12.203125 14.296875 26.40625 
Q 14.203125 40.296875 11.09375 48.6875 
Q 8 57.09375 0.703125 62.796875 
L 0.703125 63.59375 
L 3.59375 66.203125 
L 4.296875 66.203125 
Q 13.09375 59.796875 16.890625 50.640625 
Q 20.703125 41.5 20.796875 26.5 
Q 20.703125 11 16.890625 1.640625 
Q 13.09375 -7.703125 4.296875 -14.09375 
L 3.59375 -14.09375 
z
" id="AlegreyaSans-Regular-41"/>
      </defs>
      <use xlink:href="#AlegreyaSans-Regular-83"/>
      <use x="47.199997" xlink:href="#AlegreyaSans-Regular-82"/>
      <use x="102.699982" xlink:href="#AlegreyaSans-Regular-78"/>
      <use x="170.999969" xlink:href="#AlegreyaSans-Regular-32"/>
      <use x="187.499954" xlink:href="#AlegreyaSans-Regular-40"/>
      <use x="216.299942" xlink:href="#AlegreyaSans-Regular-8722"/>
      <use x="264.299927" xlink:href="#AlegreyaSans-Regular-41"/>
     </g>
    </g>
    <g id="line2d_31">
     <path d="M 49.06 180.405 
L 69.06 180.405 
" style="fill:none;stroke:#ff8c00;stroke-linecap:square;stroke-width:1.5;"/>
    </g>
    <g id="line2d_32"/>
    <g id="text_14">
     <!-- SRN (+) -->
     <g style="fill:#dddddd;" transform="translate(77.06 183.905)scale(0.1 -0.1)">
      <defs>
       <path d="M 26.796875 46.796875 
L 26.796875 29.296875 
L 44.296875 29.296875 
L 44.90625 28.703125 
L 44.40625 23.703125 
L 26.796875 23.703125 
L 26.796875 6 
L 21.796875 5.59375 
L 21.203125 6.203125 
L 21.203125 23.703125 
L 3.703125 23.703125 
L 3.09375 24.296875 
L 3.59375 29.296875 
L 21.203125 29.296875 
L 21.203125 47 
L 26.203125 47.5 
z
" id="AlegreyaSans-Regular-43"/>
      </defs>
      <use xlink:href="#AlegreyaSans-Regular-83"/>
      <use x="47.199997" xlink:href="#AlegreyaSans-Regular-82"/>
      <use x="102.699982" xlink:href="#AlegreyaSans-Regular-78"/>
      <use x="170.999969" xlink:href="#AlegreyaSans-Regular-32"/>
      <use x="187.499954" xlink:href="#AlegreyaSans-Regular-40"/>
      <use x="216.299942" xlink:href="#AlegreyaSans-Regular-43"/>
      <use x="264.299927" xlink:href="#AlegreyaSans-Regular-41"/>
     </g>
    </g>
    <g id="line2d_33">
     <path d="M 49.06 194.275312 
L 69.06 194.275312 
" style="fill:none;stroke:#9acd32;stroke-dasharray:5.55,2.4;stroke-dashoffset:0;stroke-width:1.5;"/>
    </g>
    <g id="line2d_34"/>
    <g id="text_15">
     <!-- GRU (−) -->
     <g style="fill:#dddddd;" transform="translate(77.06 197.775312)scale(0.1 -0.1)">
      <defs>
       <path d="M 35 64.59375 
Q 45.09375 64.59375 53.796875 60.09375 
L 52.203125 52.5 
L 51.203125 52.296875 
Q 46.40625 55.296875 42.34375 56.59375 
Q 38.296875 57.90625 33.796875 57.90625 
Q 12.09375 57.90625 12.09375 31.09375 
Q 12.09375 18.203125 17.140625 12.140625 
Q 22.203125 6.09375 32.796875 6.09375 
Q 35.59375 6.09375 38.4375 6.59375 
Q 41.296875 7.09375 45.796875 8.5 
L 46 16 
L 45.90625 25.59375 
L 53.40625 26.203125 
L 53.203125 17.09375 
L 53.59375 3.09375 
Q 47.09375 1.09375 42.09375 0.1875 
Q 37.09375 -0.703125 32.40625 -0.703125 
Q 18.09375 -0.703125 10.9375 7.390625 
Q 3.796875 15.5 3.796875 30.796875 
Q 3.796875 47.296875 11.890625 55.9375 
Q 20 64.59375 35 64.59375 
z
" id="AlegreyaSans-Regular-71"/>
       <path d="M 55.09375 31.5 
L 55 24.296875 
Q 55.203125 12.5 48.796875 5.890625 
Q 42.40625 -0.703125 30.59375 -0.703125 
Q 19.296875 -0.703125 13.25 5.59375 
Q 7.203125 11.90625 7.40625 23.40625 
L 7.5 32.09375 
L 7.40625 64.09375 
L 15.296875 64.09375 
L 15 24.40625 
Q 14.90625 15.40625 19 10.84375 
Q 23.09375 6.296875 31.203125 6.296875 
Q 39.296875 6.296875 43.5 10.59375 
Q 47.703125 14.90625 47.59375 23.40625 
L 47.203125 64.09375 
L 55.203125 64.09375 
z
" id="AlegreyaSans-Regular-85"/>
      </defs>
      <use xlink:href="#AlegreyaSans-Regular-71"/>
      <use x="59.999985" xlink:href="#AlegreyaSans-Regular-82"/>
      <use x="115.499969" xlink:href="#AlegreyaSans-Regular-85"/>
      <use x="178.09996" xlink:href="#AlegreyaSans-Regular-32"/>
      <use x="194.599945" xlink:href="#AlegreyaSans-Regular-40"/>
      <use x="223.399933" xlink:href="#AlegreyaSans-Regular-8722"/>
      <use x="271.399918" xlink:href="#AlegreyaSans-Regular-41"/>
     </g>
    </g>
    <g id="line2d_35">
     <path d="M 49.06 208.145625 
L 69.06 208.145625 
" style="fill:none;stroke:#006400;stroke-linecap:square;stroke-width:1.5;"/>
    </g>
    <g id="line2d_36"/>
    <g id="text_16">
     <!-- GRU (+) -->
     <g style="fill:#dddddd;" transform="translate(77.06 211.645625)scale(0.1 -0.1)">
      <use xlink:href="#AlegreyaSans-Regular-71"/>
      <use x="59.999985" xlink:href="#AlegreyaSans-Regular-82"/>
      <use x="115.499969" xlink:href="#AlegreyaSans-Regular-85"/>
      <use x="178.09996" xlink:href="#AlegreyaSans-Regular-32"/>
      <use x="194.599945" xlink:href="#AlegreyaSans-Regular-40"/>
      <use x="223.399933" xlink:href="#AlegreyaSans-Regular-43"/>
      <use x="271.399918" xlink:href="#AlegreyaSans-Regular-41"/>
     </g>
    </g>
    <g id="line2d_37">
     <path d="M 49.06 222.015938 
L 69.06 222.015938 
" style="fill:none;stroke:#6495ed;stroke-dasharray:5.55,2.4;stroke-dashoffset:0;stroke-width:1.5;"/>
    </g>
    <g id="line2d_38"/>
    <g id="text_17">
     <!-- LSTM (−) -->
     <g style="fill:#dddddd;" transform="translate(77.06 225.515938)scale(0.1 -0.1)">
      <defs>
       <path d="M 41.296875 6 
L 40.59375 0 
L 9 0 
L 9.5 19.296875 
L 9 64.09375 
L 17.203125 64.09375 
L 16.703125 20 
L 17 6.703125 
L 40.703125 6.703125 
z
" id="AlegreyaSans-Regular-76"/>
       <path d="M 46.90625 63.296875 
L 46.296875 57.09375 
L 35.09375 57.703125 
L 28.59375 57.703125 
L 28.296875 20 
L 28.59375 0 
L 20.5 0 
L 21.09375 19.296875 
L 20.59375 57.703125 
L 14.09375 57.703125 
L 2.703125 57.09375 
L 2.203125 57.90625 
L 2.796875 64.09375 
L 46.296875 64.09375 
z
" id="AlegreyaSans-Regular-84"/>
       <path d="M 72.796875 0 
L 65.59375 0 
L 64.09375 19.5 
L 60.703125 51.40625 
L 60 51.40625 
L 42.203125 7.40625 
L 35.59375 7.40625 
L 18.703125 51.40625 
L 17.90625 51.40625 
L 14.5 20.09375 
L 12.796875 0 
L 6 0 
L 12.703125 64.09375 
L 21.796875 64.09375 
L 25.09375 54.296875 
L 39 17.796875 
L 39.59375 17.796875 
L 54.203125 54.90625 
L 57.5 64.09375 
L 66.5 64.09375 
z
" id="AlegreyaSans-Regular-77"/>
      </defs>
      <use xlink:href="#AlegreyaSans-Regular-76"/>
      <use x="41.599991" xlink:href="#AlegreyaSans-Regular-83"/>
      <use x="88.799988" xlink:href="#AlegreyaSans-Regular-84"/>
      <use x="137.799973" xlink:href="#AlegreyaSans-Regular-77"/>
      <use x="216.699966" xlink:href="#AlegreyaSans-Regular-32"/>
      <use x="233.199951" xlink:href="#AlegreyaSans-Regular-40"/>
      <use x="261.999939" xlink:href="#AlegreyaSans-Regular-8722"/>
      <use x="309.999924" xlink:href="#AlegreyaSans-Regular-41"/>
     </g>
    </g>
    <g id="line2d_39">
     <path d="M 49.06 235.88625 
L 69.06 235.88625 
" style="fill:none;stroke:#483d8b;stroke-linecap:square;stroke-width:1.5;"/>
    </g>
    <g id="line2d_40"/>
    <g id="text_18">
     <!-- LSTM (+) -->
     <g style="fill:#dddddd;" transform="translate(77.06 239.38625)scale(0.1 -0.1)">
      <use xlink:href="#AlegreyaSans-Regular-76"/>
      <use x="41.599991" xlink:href="#AlegreyaSans-Regular-83"/>
      <use x="88.799988" xlink:href="#AlegreyaSans-Regular-84"/>
      <use x="137.799973" xlink:href="#AlegreyaSans-Regular-77"/>
      <use x="216.699966" xlink:href="#AlegreyaSans-Regular-32"/>
      <use x="233.199951" xlink:href="#AlegreyaSans-Regular-40"/>
      <use x="261.999939" xlink:href="#AlegreyaSans-Regular-43"/>
      <use x="309.999924" xlink:href="#AlegreyaSans-Regular-41"/>
     </g>
    </g>
   </g>
  </g>
 </g>
 <defs>
  <clipPath id="pd49d981471">
   <rect height="213.06625" width="381.14" x="40.06" y="37.17"/>
  </clipPath>
 </defs>
</svg>
